ISO-10303-21;
HEADER;
FILE_DESCRIPTION((''),'2;1');
FILE_NAME('2038-XX-SM','2012-07-30T',('ryans'),('Bourns, Inc.'),
'PRO/ENGINEER BY PARAMETRIC TECHNOLOGY CORPORATION, 2010100',
'PRO/ENGINEER BY PARAMETRIC TECHNOLOGY CORPORATION, 2010100','');
FILE_SCHEMA(('CONFIG_CONTROL_DESIGN'));
ENDSEC;
DATA;
#1=CARTESIAN_POINT('',(0.E0,2.1E0,-2.4E0));
#2=CARTESIAN_POINT('',(0.E0,2.085774109190E0,-2.414225890810E0));
#3=CARTESIAN_POINT('',(5.599515093403E-3,2.061281783044E0,-2.438718216956E0));
#4=CARTESIAN_POINT('',(2.421993192295E-2,2.031770734888E0,-2.468229265112E0));
#5=CARTESIAN_POINT('',(4.783582505452E-2,2.012904967645E0,-2.487095032355E0));
#6=CARTESIAN_POINT('',(7.365370023095E-2,2.002709182393E0,-2.497290817607E0));
#7=CARTESIAN_POINT('',(8.994078293590E-2,1.999999999316E0,-2.500000000684E0));
#8=CARTESIAN_POINT('',(1.000000067961E-1,2.E0,-2.5E0));
#10=CARTESIAN_POINT('',(0.E0,-2.1E0,-2.4E0));
#11=CARTESIAN_POINT('',(0.E0,-2.085774109190E0,-2.414225890810E0));
#12=CARTESIAN_POINT('',(5.599515093422E-3,-2.061281783044E0,-2.438718216956E0));
#13=CARTESIAN_POINT('',(2.421993192301E-2,-2.031770734888E0,-2.468229265112E0));
#14=CARTESIAN_POINT('',(4.783582505462E-2,-2.012904967645E0,-2.487095032355E0));
#15=CARTESIAN_POINT('',(7.365370023109E-2,-2.002709182393E0,-2.497290817607E0));
#16=CARTESIAN_POINT('',(8.994078293607E-2,-1.999999999316E0,-2.500000000684E0));
#17=CARTESIAN_POINT('',(1.000000067963E-1,-2.E0,-2.5E0));
#19=DIRECTION('',(0.E0,-7.071067811865E-1,-7.071067811865E-1));
#20=VECTOR('',#19,4.242640687119E-1);
#21=CARTESIAN_POINT('',(0.E0,2.4E0,-2.1E0));
#22=LINE('',#21,#20);
#23=DIRECTION('',(0.E0,0.E0,-1.E0));
#24=VECTOR('',#23,4.2E0);
#25=CARTESIAN_POINT('',(0.E0,2.4E0,2.1E0));
#26=LINE('',#25,#24);
#27=DIRECTION('',(0.E0,7.071067811865E-1,-7.071067811865E-1));
#28=VECTOR('',#27,4.242640687119E-1);
#29=CARTESIAN_POINT('',(0.E0,2.1E0,2.4E0));
#30=LINE('',#29,#28);
#31=DIRECTION('',(0.E0,1.E0,0.E0));
#32=VECTOR('',#31,4.2E0);
#33=CARTESIAN_POINT('',(0.E0,-2.1E0,2.4E0));
#34=LINE('',#33,#32);
#35=DIRECTION('',(0.E0,7.071067811865E-1,7.071067811865E-1));
#36=VECTOR('',#35,4.242640687119E-1);
#37=CARTESIAN_POINT('',(0.E0,-2.4E0,2.1E0));
#38=LINE('',#37,#36);
#39=DIRECTION('',(0.E0,0.E0,1.E0));
#40=VECTOR('',#39,4.2E0);
#41=CARTESIAN_POINT('',(0.E0,-2.4E0,-2.1E0));
#42=LINE('',#41,#40);
#43=DIRECTION('',(0.E0,-7.071067811865E-1,7.071067811865E-1));
#44=VECTOR('',#43,4.242640687119E-1);
#45=CARTESIAN_POINT('',(0.E0,-2.1E0,-2.4E0));
#46=LINE('',#45,#44);
#47=DIRECTION('',(0.E0,-1.E0,0.E0));
#48=VECTOR('',#47,4.2E0);
#49=CARTESIAN_POINT('',(0.E0,2.1E0,-2.4E0));
#50=LINE('',#49,#48);
#51=CARTESIAN_POINT('',(1.000000067961E-1,2.5E0,-2.E0));
#52=CARTESIAN_POINT('',(8.994078293590E-2,2.500000000684E0,-1.999999999316E0));
#53=CARTESIAN_POINT('',(7.365370023095E-2,2.497290817607E0,-2.002709182393E0));
#54=CARTESIAN_POINT('',(4.783582505452E-2,2.487095032355E0,-2.012904967645E0));
#55=CARTESIAN_POINT('',(2.421993192295E-2,2.468229265112E0,-2.031770734888E0));
#56=CARTESIAN_POINT('',(5.599515093403E-3,2.438718216956E0,-2.061281783044E0));
#57=CARTESIAN_POINT('',(0.E0,2.414225890810E0,-2.085774109190E0));
#58=CARTESIAN_POINT('',(0.E0,2.4E0,-2.1E0));
#60=CARTESIAN_POINT('',(0.E0,2.4E0,2.1E0));
#61=CARTESIAN_POINT('',(0.E0,2.414225890810E0,2.085774109190E0));
#62=CARTESIAN_POINT('',(5.599515093442E-3,2.438718216956E0,2.061281783044E0));
#63=CARTESIAN_POINT('',(2.421993192308E-2,2.468229265112E0,2.031770734888E0));
#64=CARTESIAN_POINT('',(4.783582505473E-2,2.487095032355E0,2.012904967645E0));
#65=CARTESIAN_POINT('',(7.365370023125E-2,2.497290817607E0,2.002709182393E0));
#66=CARTESIAN_POINT('',(8.994078293625E-2,2.500000000684E0,1.999999999316E0));
#67=CARTESIAN_POINT('',(1.000000067965E-1,2.5E0,2.E0));
#69=DIRECTION('',(-1.E0,0.E0,0.E0));
#70=VECTOR('',#69,3.299999954689E-1);
#71=CARTESIAN_POINT('',(4.299999977343E-1,2.5E0,-2.E0));
#72=LINE('',#71,#70);
#73=DIRECTION('',(2.048777814068E-13,0.E0,1.E0));
#74=VECTOR('',#73,4.E0);
#75=CARTESIAN_POINT('',(4.299999977343E-1,2.5E0,-2.E0));
#76=LINE('',#75,#74);
#77=DIRECTION('',(-1.E0,0.E0,0.E0));
#78=VECTOR('',#77,3.299999954696E-1);
#79=CARTESIAN_POINT('',(4.299999977351E-1,2.5E0,2.E0));
#80=LINE('',#79,#78);
#81=DIRECTION('',(-3.218952882023E-14,0.E0,-1.E0));
#82=VECTOR('',#81,4.E0);
#83=CARTESIAN_POINT('',(1.000000022655E-1,2.5E0,2.E0));
#84=LINE('',#83,#82);
#85=CARTESIAN_POINT('',(5.3E-1,2.4E0,-2.1E0));
#86=CARTESIAN_POINT('',(5.3E-1,2.414225890810E0,-2.085774109190E0));
#87=CARTESIAN_POINT('',(5.244004849065E-1,2.438718216956E0,-2.061281783044E0));
#88=CARTESIAN_POINT('',(5.057800680767E-1,2.468229265112E0,-2.031770734888E0));
#89=CARTESIAN_POINT('',(4.821641749449E-1,2.487095032355E0,-2.012904967645E0));
#90=CARTESIAN_POINT('',(4.563462997683E-1,2.497290817607E0,-2.002709182393E0));
#91=CARTESIAN_POINT('',(4.400592170632E-1,2.500000000684E0,-1.999999999316E0));
#92=CARTESIAN_POINT('',(4.299999932029E-1,2.5E0,-2.E0));
#94=CARTESIAN_POINT('',(5.3E-1,2.4E0,2.1E0));
#95=CARTESIAN_POINT('',(5.3E-1,2.414225890810E0,2.085774109190E0));
#96=CARTESIAN_POINT('',(5.244004849067E-1,2.438718216955E0,2.061281783045E0));
#97=CARTESIAN_POINT('',(5.057800680775E-1,2.468229265111E0,2.031770734889E0));
#98=CARTESIAN_POINT('',(4.821641749463E-1,2.487095032354E0,2.012904967646E0));
#99=CARTESIAN_POINT('',(4.563462997701E-1,2.497290817607E0,2.002709182393E0));
#100=CARTESIAN_POINT('',(4.400592170654E-1,2.500000000683E0,1.999999999317E0));
#101=CARTESIAN_POINT('',(4.299999932053E-1,2.5E0,2.E0));
#103=DIRECTION('',(0.E0,7.071067811865E-1,7.071067811865E-1));
#104=VECTOR('',#103,4.242640687119E-1);
#105=CARTESIAN_POINT('',(5.3E-1,2.1E0,-2.4E0));
#106=LINE('',#105,#104);
#107=DIRECTION('',(0.E0,1.E0,0.E0));
#108=VECTOR('',#107,2.1E0);
#109=CARTESIAN_POINT('',(5.3E-1,0.E0,-2.4E0));
#110=LINE('',#109,#108);
#111=CARTESIAN_POINT('',(5.3E-1,0.E0,0.E0));
#112=DIRECTION('',(1.E0,0.E0,0.E0));
#113=DIRECTION('',(0.E0,0.E0,-1.E0));
#114=AXIS2_PLACEMENT_3D('',#111,#112,#113);
#116=DIRECTION('',(0.E0,0.E0,1.E0));
#117=VECTOR('',#116,2.1E0);
#118=CARTESIAN_POINT('',(5.3E-1,2.4E0,-2.1E0));
#119=LINE('',#118,#117);
#120=DIRECTION('',(0.E0,-7.071067811865E-1,7.071067811865E-1));
#121=VECTOR('',#120,4.242640687119E-1);
#122=CARTESIAN_POINT('',(5.3E-1,2.4E0,2.1E0));
#123=LINE('',#122,#121);
#124=DIRECTION('',(0.E0,0.E0,1.E0));
#125=VECTOR('',#124,2.1E0);
#126=CARTESIAN_POINT('',(5.3E-1,2.4E0,0.E0));
#127=LINE('',#126,#125);
#128=CARTESIAN_POINT('',(5.3E-1,0.E0,0.E0));
#129=DIRECTION('',(1.E0,0.E0,0.E0));
#130=DIRECTION('',(0.E0,1.E0,0.E0));
#131=AXIS2_PLACEMENT_3D('',#128,#129,#130);
#133=DIRECTION('',(0.E0,-1.E0,0.E0));
#134=VECTOR('',#133,2.1E0);
#135=CARTESIAN_POINT('',(5.3E-1,2.1E0,2.4E0));
#136=LINE('',#135,#134);
#137=DIRECTION('',(0.E0,-7.071067811865E-1,-7.071067811865E-1));
#138=VECTOR('',#137,4.242640687119E-1);
#139=CARTESIAN_POINT('',(5.3E-1,-2.1E0,2.4E0));
#140=LINE('',#139,#138);
#141=DIRECTION('',(0.E0,-1.E0,0.E0));
#142=VECTOR('',#141,2.1E0);
#143=CARTESIAN_POINT('',(5.3E-1,0.E0,2.4E0));
#144=LINE('',#143,#142);
#145=CARTESIAN_POINT('',(5.3E-1,0.E0,0.E0));
#146=DIRECTION('',(1.E0,0.E0,0.E0));
#147=DIRECTION('',(0.E0,0.E0,1.E0));
#148=AXIS2_PLACEMENT_3D('',#145,#146,#147);
#150=DIRECTION('',(0.E0,0.E0,-1.E0));
#151=VECTOR('',#150,2.1E0);
#152=CARTESIAN_POINT('',(5.3E-1,-2.4E0,2.1E0));
#153=LINE('',#152,#151);
#154=DIRECTION('',(0.E0,7.071067811865E-1,-7.071067811865E-1));
#155=VECTOR('',#154,4.242640687119E-1);
#156=CARTESIAN_POINT('',(5.3E-1,-2.4E0,-2.1E0));
#157=LINE('',#156,#155);
#158=DIRECTION('',(0.E0,0.E0,-1.E0));
#159=VECTOR('',#158,2.1E0);
#160=CARTESIAN_POINT('',(5.3E-1,-2.4E0,0.E0));
#161=LINE('',#160,#159);
#162=CARTESIAN_POINT('',(5.3E-1,0.E0,0.E0));
#163=DIRECTION('',(1.E0,0.E0,0.E0));
#164=DIRECTION('',(0.E0,-1.E0,0.E0));
#165=AXIS2_PLACEMENT_3D('',#162,#163,#164);
#167=DIRECTION('',(0.E0,1.E0,0.E0));
#168=VECTOR('',#167,2.1E0);
#169=CARTESIAN_POINT('',(5.3E-1,-2.1E0,-2.4E0));
#170=LINE('',#169,#168);
#171=CARTESIAN_POINT('',(4.299999932047E-1,2.E0,-2.5E0));
#172=CARTESIAN_POINT('',(4.400592170648E-1,1.999999999316E0,-2.500000000684E0));
#173=CARTESIAN_POINT('',(4.563462997697E-1,2.002709182393E0,-2.497290817607E0));
#174=CARTESIAN_POINT('',(4.821641749459E-1,2.012904967646E0,-2.487095032354E0));
#175=CARTESIAN_POINT('',(5.057800680773E-1,2.031770734889E0,-2.468229265111E0));
#176=CARTESIAN_POINT('',(5.244004849067E-1,2.061281783045E0,-2.438718216955E0));
#177=CARTESIAN_POINT('',(5.3E-1,2.085774109190E0,-2.414225890810E0));
#178=CARTESIAN_POINT('',(5.3E-1,2.1E0,-2.4E0));
#180=CARTESIAN_POINT('',(5.3E-1,-2.1E0,-2.4E0));
#181=CARTESIAN_POINT('',(5.3E-1,-2.085774109190E0,-2.414225890810E0));
#182=CARTESIAN_POINT('',(5.244004849065E-1,-2.061281783044E0,
-2.438718216956E0));
#183=CARTESIAN_POINT('',(5.057800680767E-1,-2.031770734888E0,
-2.468229265112E0));
#184=CARTESIAN_POINT('',(4.821641749449E-1,-2.012904967645E0,
-2.487095032355E0));
#185=CARTESIAN_POINT('',(4.563462997683E-1,-2.002709182393E0,
-2.497290817607E0));
#186=CARTESIAN_POINT('',(4.400592170632E-1,-1.999999999316E0,
-2.500000000684E0));
#187=CARTESIAN_POINT('',(4.299999932029E-1,-2.E0,-2.5E0));
#189=DIRECTION('',(-1.E0,0.E0,0.E0));
#190=VECTOR('',#189,3.299999954695E-1);
#191=CARTESIAN_POINT('',(4.299999977349E-1,2.E0,-2.5E0));
#192=LINE('',#191,#190);
#193=DIRECTION('',(1.540087501972E-14,-1.E0,0.E0));
#194=VECTOR('',#193,4.E0);
#195=CARTESIAN_POINT('',(1.000000022654E-1,2.E0,-2.5E0));
#196=LINE('',#195,#194);
#197=DIRECTION('',(-1.E0,0.E0,0.E0));
#198=VECTOR('',#197,3.299999954689E-1);
#199=CARTESIAN_POINT('',(4.299999977343E-1,-2.E0,-2.5E0));
#200=LINE('',#199,#198);
#201=DIRECTION('',(1.526556658860E-13,1.E0,0.E0));
#202=VECTOR('',#201,4.E0);
#203=CARTESIAN_POINT('',(4.299999977343E-1,-2.E0,-2.5E0));
#204=LINE('',#203,#202);
#205=CARTESIAN_POINT('',(0.E0,-2.4E0,2.1E0));
#206=CARTESIAN_POINT('',(0.E0,-2.414225890810E0,2.085774109190E0));
#207=CARTESIAN_POINT('',(5.599515093455E-3,-2.438718216956E0,2.061281783044E0));
#208=CARTESIAN_POINT('',(2.421993192312E-2,-2.468229265112E0,2.031770734888E0));
#209=CARTESIAN_POINT('',(4.783582505480E-2,-2.487095032355E0,2.012904967645E0));
#210=CARTESIAN_POINT('',(7.365370023135E-2,-2.497290817607E0,2.002709182393E0));
#211=CARTESIAN_POINT('',(8.994078293637E-2,-2.500000000684E0,1.999999999316E0));
#212=CARTESIAN_POINT('',(1.000000067966E-1,-2.5E0,2.E0));
#214=CARTESIAN_POINT('',(0.E0,-2.4E0,-2.1E0));
#215=CARTESIAN_POINT('',(0.E0,-2.414225890810E0,-2.085774109190E0));
#216=CARTESIAN_POINT('',(5.599515093422E-3,-2.438718216956E0,
-2.061281783044E0));
#217=CARTESIAN_POINT('',(2.421993192301E-2,-2.468229265112E0,
-2.031770734888E0));
#218=CARTESIAN_POINT('',(4.783582505462E-2,-2.487095032355E0,
-2.012904967645E0));
#219=CARTESIAN_POINT('',(7.365370023109E-2,-2.497290817607E0,
-2.002709182393E0));
#220=CARTESIAN_POINT('',(8.994078293607E-2,-2.500000000684E0,
-1.999999999316E0));
#221=CARTESIAN_POINT('',(1.000000067963E-1,-2.5E0,-2.E0));
#223=CARTESIAN_POINT('',(0.E0,2.1E0,2.4E0));
#224=CARTESIAN_POINT('',(0.E0,2.085774109190E0,2.414225890810E0));
#225=CARTESIAN_POINT('',(5.599515093442E-3,2.061281783044E0,2.438718216956E0));
#226=CARTESIAN_POINT('',(2.421993192308E-2,2.031770734888E0,2.468229265112E0));
#227=CARTESIAN_POINT('',(4.783582505473E-2,2.012904967645E0,2.487095032355E0));
#228=CARTESIAN_POINT('',(7.365370023125E-2,2.002709182393E0,2.497290817607E0));
#229=CARTESIAN_POINT('',(8.994078293625E-2,1.999999999316E0,2.500000000684E0));
#230=CARTESIAN_POINT('',(1.000000067965E-1,2.E0,2.5E0));
#232=CARTESIAN_POINT('',(0.E0,-2.1E0,2.4E0));
#233=CARTESIAN_POINT('',(0.E0,-2.085774109190E0,2.414225890810E0));
#234=CARTESIAN_POINT('',(5.599515093455E-3,-2.061281783044E0,2.438718216956E0));
#235=CARTESIAN_POINT('',(2.421993192312E-2,-2.031770734888E0,2.468229265112E0));
#236=CARTESIAN_POINT('',(4.783582505480E-2,-2.012904967645E0,2.487095032355E0));
#237=CARTESIAN_POINT('',(7.365370023135E-2,-2.002709182393E0,2.497290817607E0));
#238=CARTESIAN_POINT('',(8.994078293637E-2,-1.999999999316E0,2.500000000684E0));
#239=CARTESIAN_POINT('',(1.000000067966E-1,-2.E0,2.5E0));
#241=CARTESIAN_POINT('',(5.3E-1,2.1E0,2.4E0));
#242=CARTESIAN_POINT('',(5.3E-1,2.085774109190E0,2.414225890810E0));
#243=CARTESIAN_POINT('',(5.244004849065E-1,2.061281783044E0,2.438718216956E0));
#244=CARTESIAN_POINT('',(5.057800680767E-1,2.031770734888E0,2.468229265112E0));
#245=CARTESIAN_POINT('',(4.821641749449E-1,2.012904967645E0,2.487095032355E0));
#246=CARTESIAN_POINT('',(4.563462997683E-1,2.002709182393E0,2.497290817607E0));
#247=CARTESIAN_POINT('',(4.400592170632E-1,1.999999999316E0,2.500000000684E0));
#248=CARTESIAN_POINT('',(4.299999932029E-1,2.E0,2.5E0));
#250=CARTESIAN_POINT('',(5.3E-1,-2.1E0,2.4E0));
#251=CARTESIAN_POINT('',(5.3E-1,-2.085774109190E0,2.414225890810E0));
#252=CARTESIAN_POINT('',(5.244004849065E-1,-2.061281783044E0,2.438718216956E0));
#253=CARTESIAN_POINT('',(5.057800680768E-1,-2.031770734888E0,2.468229265112E0));
#254=CARTESIAN_POINT('',(4.821641749450E-1,-2.012904967645E0,2.487095032355E0));
#255=CARTESIAN_POINT('',(4.563462997683E-1,-2.002709182393E0,2.497290817607E0));
#256=CARTESIAN_POINT('',(4.400592170633E-1,-1.999999999316E0,2.500000000684E0));
#257=CARTESIAN_POINT('',(4.299999932030E-1,-2.E0,2.5E0));
#259=DIRECTION('',(-1.E0,0.E0,0.E0));
#260=VECTOR('',#259,3.299999954688E-1);
#261=CARTESIAN_POINT('',(4.299999977343E-1,2.E0,2.5E0));
#262=LINE('',#261,#260);
#263=DIRECTION('',(0.E0,-1.E0,0.E0));
#264=VECTOR('',#263,4.E0);
#265=CARTESIAN_POINT('',(4.299999977343E-1,2.E0,2.5E0));
#266=LINE('',#265,#264);
#267=DIRECTION('',(-1.E0,0.E0,0.E0));
#268=VECTOR('',#267,3.299999954688E-1);
#269=CARTESIAN_POINT('',(4.299999977343E-1,-2.E0,2.5E0));
#270=LINE('',#269,#268);
#271=DIRECTION('',(-1.136937766155E-14,1.E0,0.E0));
#272=VECTOR('',#271,4.E0);
#273=CARTESIAN_POINT('',(1.000000022655E-1,-2.E0,2.5E0));
#274=LINE('',#273,#272);
#275=CARTESIAN_POINT('',(5.3E-1,-2.4E0,2.1E0));
#276=CARTESIAN_POINT('',(5.3E-1,-2.414225890810E0,2.085774109190E0));
#277=CARTESIAN_POINT('',(5.244004849065E-1,-2.438718216956E0,2.061281783044E0));
#278=CARTESIAN_POINT('',(5.057800680768E-1,-2.468229265112E0,2.031770734888E0));
#279=CARTESIAN_POINT('',(4.821641749450E-1,-2.487095032355E0,2.012904967645E0));
#280=CARTESIAN_POINT('',(4.563462997683E-1,-2.497290817607E0,2.002709182393E0));
#281=CARTESIAN_POINT('',(4.400592170633E-1,-2.500000000684E0,1.999999999316E0));
#282=CARTESIAN_POINT('',(4.299999932030E-1,-2.5E0,2.E0));
#284=CARTESIAN_POINT('',(5.3E-1,-2.4E0,-2.1E0));
#285=CARTESIAN_POINT('',(5.3E-1,-2.414225890810E0,-2.085774109190E0));
#286=CARTESIAN_POINT('',(5.244004849065E-1,-2.438718216956E0,
-2.061281783044E0));
#287=CARTESIAN_POINT('',(5.057800680767E-1,-2.468229265112E0,
-2.031770734888E0));
#288=CARTESIAN_POINT('',(4.821641749449E-1,-2.487095032355E0,
-2.012904967645E0));
#289=CARTESIAN_POINT('',(4.563462997683E-1,-2.497290817607E0,
-2.002709182393E0));
#290=CARTESIAN_POINT('',(4.400592170632E-1,-2.500000000684E0,
-1.999999999316E0));
#291=CARTESIAN_POINT('',(4.299999932029E-1,-2.5E0,-2.E0));
#293=DIRECTION('',(-1.E0,0.E0,0.E0));
#294=VECTOR('',#293,3.299999954688E-1);
#295=CARTESIAN_POINT('',(4.299999977343E-1,-2.5E0,2.E0));
#296=LINE('',#295,#294);
#297=DIRECTION('',(0.E0,0.E0,-1.E0));
#298=VECTOR('',#297,4.E0);
#299=CARTESIAN_POINT('',(4.299999977343E-1,-2.5E0,2.E0));
#300=LINE('',#299,#298);
#301=DIRECTION('',(-1.E0,0.E0,0.E0));
#302=VECTOR('',#301,3.299999954689E-1);
#303=CARTESIAN_POINT('',(4.299999977343E-1,-2.5E0,-2.E0));
#304=LINE('',#303,#302);
#305=DIRECTION('',(2.815803146206E-14,0.E0,1.E0));
#306=VECTOR('',#305,4.E0);
#307=CARTESIAN_POINT('',(1.000000022654E-1,-2.5E0,-2.E0));
#308=LINE('',#307,#306);
#309=CARTESIAN_POINT('',(3.E0,0.E0,0.E0));
#310=DIRECTION('',(1.E0,0.E0,0.E0));
#311=DIRECTION('',(0.E0,-1.E0,0.E0));
#312=AXIS2_PLACEMENT_3D('',#309,#310,#311);
#314=DIRECTION('',(1.E0,0.E0,0.E0));
#315=VECTOR('',#314,2.47E0);
#316=CARTESIAN_POINT('',(5.3E-1,-2.4E0,0.E0));
#317=LINE('',#316,#315);
#318=CARTESIAN_POINT('',(6.96E0,0.E0,0.E0));
#319=DIRECTION('',(1.E0,0.E0,0.E0));
#320=DIRECTION('',(0.E0,-1.E0,0.E0));
#321=AXIS2_PLACEMENT_3D('',#318,#319,#320);
#323=CARTESIAN_POINT('',(4.3E0,0.E0,0.E0));
#324=DIRECTION('',(-1.E0,0.E0,0.E0));
#325=DIRECTION('',(0.E0,1.E0,0.E0));
#326=AXIS2_PLACEMENT_3D('',#323,#324,#325);
#328=DIRECTION('',(1.E0,0.E0,0.E0));
#329=VECTOR('',#328,2.66E0);
#330=CARTESIAN_POINT('',(4.3E0,-2.4E0,0.E0));
#331=LINE('',#330,#329);
#332=CARTESIAN_POINT('',(3.E0,0.E0,0.E0));
#333=DIRECTION('',(-1.E0,0.E0,0.E0));
#334=DIRECTION('',(0.E0,0.E0,-1.E0));
#335=AXIS2_PLACEMENT_3D('',#332,#333,#334);
#337=CARTESIAN_POINT('',(3.E0,0.E0,0.E0));
#338=DIRECTION('',(1.E0,0.E0,0.E0));
#339=DIRECTION('',(0.E0,0.E0,-1.E0));
#340=AXIS2_PLACEMENT_3D('',#337,#338,#339);
#342=DIRECTION('',(-1.E0,0.E0,0.E0));
#343=VECTOR('',#342,1.3E0);
#344=CARTESIAN_POINT('',(4.3E0,0.E0,-2.5E0));
#345=LINE('',#344,#343);
#346=DIRECTION('',(-1.E0,0.E0,0.E0));
#347=VECTOR('',#346,1.3E0);
#348=CARTESIAN_POINT('',(4.3E0,0.E0,2.5E0));
#349=LINE('',#348,#347);
#350=CARTESIAN_POINT('',(4.3E0,0.E0,0.E0));
#351=DIRECTION('',(-1.E0,0.E0,0.E0));
#352=DIRECTION('',(0.E0,0.E0,-1.E0));
#353=AXIS2_PLACEMENT_3D('',#350,#351,#352);
#355=CARTESIAN_POINT('',(4.3E0,0.E0,0.E0));
#356=DIRECTION('',(1.E0,0.E0,0.E0));
#357=DIRECTION('',(0.E0,0.E0,-1.E0));
#358=AXIS2_PLACEMENT_3D('',#355,#356,#357);
#360=CARTESIAN_POINT('',(3.E0,0.E0,0.E0));
#361=DIRECTION('',(1.E0,0.E0,0.E0));
#362=DIRECTION('',(0.E0,1.E0,0.E0));
#363=AXIS2_PLACEMENT_3D('',#360,#361,#362);
#365=DIRECTION('',(1.E0,0.E0,0.E0));
#366=VECTOR('',#365,2.47E0);
#367=CARTESIAN_POINT('',(5.3E-1,2.4E0,0.E0));
#368=LINE('',#367,#366);
#369=CARTESIAN_POINT('',(6.96E0,0.E0,0.E0));
#370=DIRECTION('',(1.E0,0.E0,0.E0));
#371=DIRECTION('',(0.E0,1.E0,0.E0));
#372=AXIS2_PLACEMENT_3D('',#369,#370,#371);
#374=CARTESIAN_POINT('',(4.3E0,0.E0,0.E0));
#375=DIRECTION('',(-1.E0,0.E0,0.E0));
#376=DIRECTION('',(0.E0,-1.E0,0.E0));
#377=AXIS2_PLACEMENT_3D('',#374,#375,#376);
#379=DIRECTION('',(1.E0,0.E0,0.E0));
#380=VECTOR('',#379,2.66E0);
#381=CARTESIAN_POINT('',(4.3E0,2.4E0,0.E0));
#382=LINE('',#381,#380);
#383=CARTESIAN_POINT('',(6.96E0,0.E0,0.E0));
#384=DIRECTION('',(1.E0,0.E0,0.E0));
#385=DIRECTION('',(0.E0,-1.E0,0.E0));
#386=AXIS2_PLACEMENT_3D('',#383,#384,#385);
#388=CARTESIAN_POINT('',(6.96E0,0.E0,0.E0));
#389=DIRECTION('',(1.E0,0.E0,0.E0));
#390=DIRECTION('',(0.E0,1.E0,0.E0));
#391=AXIS2_PLACEMENT_3D('',#388,#389,#390);
#393=DIRECTION('',(-1.E0,0.E0,0.E0));
#394=VECTOR('',#393,2.1E-1);
#395=CARTESIAN_POINT('',(6.96E0,-1.025308930455E0,0.E0));
#396=LINE('',#395,#394);
#397=DIRECTION('',(-1.E0,0.E0,0.E0));
#398=VECTOR('',#397,2.1E-1);
#399=CARTESIAN_POINT('',(6.96E0,1.025308930455E0,0.E0));
#400=LINE('',#399,#398);
#401=CARTESIAN_POINT('',(6.75E0,0.E0,0.E0));
#402=DIRECTION('',(-1.E0,0.E0,0.E0));
#403=DIRECTION('',(0.E0,1.E0,0.E0));
#404=AXIS2_PLACEMENT_3D('',#401,#402,#403);
#406=CARTESIAN_POINT('',(6.75E0,0.E0,0.E0));
#407=DIRECTION('',(-1.E0,0.E0,0.E0));
#408=DIRECTION('',(0.E0,-1.E0,0.E0));
#409=AXIS2_PLACEMENT_3D('',#406,#407,#408);
#411=CARTESIAN_POINT('',(4.3E0,0.E0,-2.5E0));
#412=CARTESIAN_POINT('',(3.E0,0.E0,-2.5E0));
#413=VERTEX_POINT('',#411);
#414=VERTEX_POINT('',#412);
#415=CARTESIAN_POINT('',(4.3E0,0.E0,2.5E0));
#416=CARTESIAN_POINT('',(3.E0,0.E0,2.5E0));
#417=VERTEX_POINT('',#415);
#418=VERTEX_POINT('',#416);
#419=CARTESIAN_POINT('',(3.E0,-2.4E0,0.E0));
#420=CARTESIAN_POINT('',(3.E0,2.4E0,0.E0));
#421=VERTEX_POINT('',#419);
#422=VERTEX_POINT('',#420);
#423=CARTESIAN_POINT('',(4.3E0,2.4E0,0.E0));
#424=CARTESIAN_POINT('',(4.3E0,-2.4E0,0.E0));
#425=VERTEX_POINT('',#423);
#426=VERTEX_POINT('',#424);
#427=CARTESIAN_POINT('',(5.3E-1,-2.4E0,0.E0));
#428=VERTEX_POINT('',#427);
#429=CARTESIAN_POINT('',(5.3E-1,2.4E0,0.E0));
#430=VERTEX_POINT('',#429);
#431=CARTESIAN_POINT('',(6.96E0,-2.4E0,0.E0));
#432=CARTESIAN_POINT('',(6.96E0,2.4E0,0.E0));
#433=VERTEX_POINT('',#431);
#434=VERTEX_POINT('',#432);
#435=CARTESIAN_POINT('',(0.E0,2.4E0,-2.1E0));
#436=CARTESIAN_POINT('',(0.E0,2.1E0,-2.4E0));
#437=VERTEX_POINT('',#435);
#438=VERTEX_POINT('',#436);
#439=CARTESIAN_POINT('',(4.299999977349E-1,2.E0,-2.5E0));
#440=CARTESIAN_POINT('',(1.000000022654E-1,2.E0,-2.5E0));
#441=VERTEX_POINT('',#439);
#442=VERTEX_POINT('',#440);
#443=CARTESIAN_POINT('',(5.3E-1,2.1E0,-2.4E0));
#444=CARTESIAN_POINT('',(5.3E-1,2.4E0,-2.1E0));
#445=VERTEX_POINT('',#443);
#446=VERTEX_POINT('',#444);
#447=CARTESIAN_POINT('',(4.299999977343E-1,2.5E0,-2.E0));
#448=CARTESIAN_POINT('',(1.000000022654E-1,2.5E0,-2.E0));
#449=VERTEX_POINT('',#447);
#450=VERTEX_POINT('',#448);
#451=CARTESIAN_POINT('',(0.E0,2.1E0,2.4E0));
#452=CARTESIAN_POINT('',(0.E0,2.4E0,2.1E0));
#453=VERTEX_POINT('',#451);
#454=VERTEX_POINT('',#452);
#455=CARTESIAN_POINT('',(4.299999977351E-1,2.5E0,2.E0));
#456=CARTESIAN_POINT('',(1.000000022655E-1,2.5E0,2.E0));
#457=VERTEX_POINT('',#455);
#458=VERTEX_POINT('',#456);
#459=CARTESIAN_POINT('',(5.3E-1,2.4E0,2.1E0));
#460=CARTESIAN_POINT('',(5.3E-1,2.1E0,2.4E0));
#461=VERTEX_POINT('',#459);
#462=VERTEX_POINT('',#460);
#463=CARTESIAN_POINT('',(4.299999977343E-1,2.E0,2.5E0));
#464=CARTESIAN_POINT('',(1.000000022655E-1,2.E0,2.5E0));
#465=VERTEX_POINT('',#463);
#466=VERTEX_POINT('',#464);
#467=CARTESIAN_POINT('',(0.E0,-2.4E0,2.1E0));
#468=CARTESIAN_POINT('',(0.E0,-2.1E0,2.4E0));
#469=VERTEX_POINT('',#467);
#470=VERTEX_POINT('',#468);
#471=CARTESIAN_POINT('',(4.299999977343E-1,-2.E0,2.5E0));
#472=CARTESIAN_POINT('',(1.000000022655E-1,-2.E0,2.5E0));
#473=VERTEX_POINT('',#471);
#474=VERTEX_POINT('',#472);
#475=CARTESIAN_POINT('',(5.3E-1,-2.1E0,2.4E0));
#476=CARTESIAN_POINT('',(5.3E-1,-2.4E0,2.1E0));
#477=VERTEX_POINT('',#475);
#478=VERTEX_POINT('',#476);
#479=CARTESIAN_POINT('',(4.299999977343E-1,-2.5E0,2.E0));
#480=CARTESIAN_POINT('',(1.000000022655E-1,-2.5E0,2.E0));
#481=VERTEX_POINT('',#479);
#482=VERTEX_POINT('',#480);
#483=CARTESIAN_POINT('',(0.E0,-2.1E0,-2.4E0));
#484=CARTESIAN_POINT('',(0.E0,-2.4E0,-2.1E0));
#485=VERTEX_POINT('',#483);
#486=VERTEX_POINT('',#484);
#487=CARTESIAN_POINT('',(4.299999977343E-1,-2.5E0,-2.E0));
#488=CARTESIAN_POINT('',(1.000000022654E-1,-2.5E0,-2.E0));
#489=VERTEX_POINT('',#487);
#490=VERTEX_POINT('',#488);
#491=CARTESIAN_POINT('',(5.3E-1,-2.4E0,-2.1E0));
#492=CARTESIAN_POINT('',(5.3E-1,-2.1E0,-2.4E0));
#493=VERTEX_POINT('',#491);
#494=VERTEX_POINT('',#492);
#495=CARTESIAN_POINT('',(4.299999977343E-1,-2.E0,-2.5E0));
#496=CARTESIAN_POINT('',(1.000000022654E-1,-2.E0,-2.5E0));
#497=VERTEX_POINT('',#495);
#498=VERTEX_POINT('',#496);
#499=CARTESIAN_POINT('',(5.3E-1,0.E0,-2.4E0));
#500=VERTEX_POINT('',#499);
#501=CARTESIAN_POINT('',(5.3E-1,0.E0,2.4E0));
#502=VERTEX_POINT('',#501);
#503=CARTESIAN_POINT('',(6.75E0,1.025308930455E0,0.E0));
#504=CARTESIAN_POINT('',(6.75E0,-1.025308930455E0,0.E0));
#505=VERTEX_POINT('',#503);
#506=VERTEX_POINT('',#504);
#507=CARTESIAN_POINT('',(6.96E0,-1.025308930455E0,0.E0));
#508=CARTESIAN_POINT('',(6.96E0,1.025308930455E0,0.E0));
#509=VERTEX_POINT('',#507);
#510=VERTEX_POINT('',#508);
#511=CARTESIAN_POINT('',(1.E-1,9.021443405011E0,-2.4E0));
#512=DIRECTION('',(0.E0,-1.E0,0.E0));
#513=DIRECTION('',(-1.E0,0.E0,0.E0));
#514=AXIS2_PLACEMENT_3D('',#511,#512,#513);
#515=CYLINDRICAL_SURFACE('',#514,1.E-1);
#517=ORIENTED_EDGE('',*,*,#516,.F.);
#519=ORIENTED_EDGE('',*,*,#518,.T.);
#521=ORIENTED_EDGE('',*,*,#520,.T.);
#523=ORIENTED_EDGE('',*,*,#522,.F.);
#524=EDGE_LOOP('',(#517,#519,#521,#523));
#525=FACE_OUTER_BOUND('',#524,.F.);
#527=CARTESIAN_POINT('',(2.65E-1,2.25E0,-2.25E0));
#528=DIRECTION('',(0.E0,7.071067811865E-1,-7.071067811865E-1));
#529=DIRECTION('',(0.E0,-7.071067811865E-1,-7.071067811865E-1));
#530=AXIS2_PLACEMENT_3D('',#527,#528,#529);
#531=PLANE('',#530);
#533=ORIENTED_EDGE('',*,*,#532,.T.);
#534=ORIENTED_EDGE('',*,*,#516,.T.);
#536=ORIENTED_EDGE('',*,*,#535,.F.);
#538=ORIENTED_EDGE('',*,*,#537,.T.);
#540=ORIENTED_EDGE('',*,*,#539,.T.);
#542=ORIENTED_EDGE('',*,*,#541,.T.);
#544=ORIENTED_EDGE('',*,*,#543,.T.);
#546=ORIENTED_EDGE('',*,*,#545,.T.);
#547=EDGE_LOOP('',(#533,#534,#536,#538,#540,#542,#544,#546));
#548=FACE_OUTER_BOUND('',#547,.F.);
#550=CARTESIAN_POINT('',(0.E0,0.E0,0.E0));
#551=DIRECTION('',(1.E0,0.E0,0.E0));
#552=DIRECTION('',(0.E0,-1.E0,0.E0));
#553=AXIS2_PLACEMENT_3D('',#550,#551,#552);
#554=PLANE('',#553);
#555=ORIENTED_EDGE('',*,*,#532,.F.);
#557=ORIENTED_EDGE('',*,*,#556,.F.);
#559=ORIENTED_EDGE('',*,*,#558,.F.);
#561=ORIENTED_EDGE('',*,*,#560,.F.);
#563=ORIENTED_EDGE('',*,*,#562,.F.);
#565=ORIENTED_EDGE('',*,*,#564,.F.);
#567=ORIENTED_EDGE('',*,*,#566,.F.);
#568=ORIENTED_EDGE('',*,*,#518,.F.);
#569=EDGE_LOOP('',(#555,#557,#559,#561,#563,#565,#567,#568));
#570=FACE_OUTER_BOUND('',#569,.F.);
#572=CARTESIAN_POINT('',(1.E-1,2.4E0,9.018E0));
#573=DIRECTION('',(0.E0,0.E0,-1.E0));
#574=DIRECTION('',(-1.E0,0.E0,0.E0));
#575=AXIS2_PLACEMENT_3D('',#572,#573,#574);
#576=CYLINDRICAL_SURFACE('',#575,1.E-1);
#577=ORIENTED_EDGE('',*,*,#545,.F.);
#579=ORIENTED_EDGE('',*,*,#578,.F.);
#581=ORIENTED_EDGE('',*,*,#580,.F.);
#582=ORIENTED_EDGE('',*,*,#556,.T.);
#583=EDGE_LOOP('',(#577,#579,#581,#582));
#584=FACE_OUTER_BOUND('',#583,.F.);
#586=CARTESIAN_POINT('',(0.E0,2.5E0,-2.5E0));
#587=DIRECTION('',(0.E0,1.E0,0.E0));
#588=DIRECTION('',(0.E0,0.E0,1.E0));
#589=AXIS2_PLACEMENT_3D('',#586,#587,#588);
#590=PLANE('',#589);
#591=ORIENTED_EDGE('',*,*,#543,.F.);
#593=ORIENTED_EDGE('',*,*,#592,.T.);
#595=ORIENTED_EDGE('',*,*,#594,.T.);
#596=ORIENTED_EDGE('',*,*,#578,.T.);
#597=EDGE_LOOP('',(#591,#593,#595,#596));
#598=FACE_OUTER_BOUND('',#597,.F.);
#600=CARTESIAN_POINT('',(4.3E-1,2.4E0,-9.018E0));
#601=DIRECTION('',(0.E0,0.E0,1.E0));
#602=DIRECTION('',(1.E0,0.E0,0.E0));
#603=AXIS2_PLACEMENT_3D('',#600,#601,#602);
#604=CYLINDRICAL_SURFACE('',#603,1.E-1);
#605=ORIENTED_EDGE('',*,*,#541,.F.);
#607=ORIENTED_EDGE('',*,*,#606,.T.);
#609=ORIENTED_EDGE('',*,*,#608,.T.);
#611=ORIENTED_EDGE('',*,*,#610,.T.);
#612=ORIENTED_EDGE('',*,*,#592,.F.);
#613=EDGE_LOOP('',(#605,#607,#609,#611,#612));
#614=FACE_OUTER_BOUND('',#613,.F.);
#616=CARTESIAN_POINT('',(5.3E-1,0.E0,0.E0));
#617=DIRECTION('',(1.E0,0.E0,0.E0));
#618=DIRECTION('',(0.E0,-1.E0,0.E0));
#619=AXIS2_PLACEMENT_3D('',#616,#617,#618);
#620=PLANE('',#619);
#621=ORIENTED_EDGE('',*,*,#539,.F.);
#623=ORIENTED_EDGE('',*,*,#622,.F.);
#625=ORIENTED_EDGE('',*,*,#624,.T.);
#626=ORIENTED_EDGE('',*,*,#606,.F.);
#627=EDGE_LOOP('',(#621,#623,#625,#626));
#628=FACE_OUTER_BOUND('',#627,.F.);
#630=CARTESIAN_POINT('',(5.3E-1,0.E0,0.E0));
#631=DIRECTION('',(1.E0,0.E0,0.E0));
#632=DIRECTION('',(0.E0,-1.E0,0.E0));
#633=AXIS2_PLACEMENT_3D('',#630,#631,#632);
#634=PLANE('',#633);
#636=ORIENTED_EDGE('',*,*,#635,.F.);
#637=ORIENTED_EDGE('',*,*,#608,.F.);
#639=ORIENTED_EDGE('',*,*,#638,.T.);
#641=ORIENTED_EDGE('',*,*,#640,.F.);
#642=EDGE_LOOP('',(#636,#637,#639,#641));
#643=FACE_OUTER_BOUND('',#642,.F.);
#645=CARTESIAN_POINT('',(5.3E-1,0.E0,0.E0));
#646=DIRECTION('',(1.E0,0.E0,0.E0));
#647=DIRECTION('',(0.E0,-1.E0,0.E0));
#648=AXIS2_PLACEMENT_3D('',#645,#646,#647);
#649=PLANE('',#648);
#651=ORIENTED_EDGE('',*,*,#650,.F.);
#653=ORIENTED_EDGE('',*,*,#652,.F.);
#655=ORIENTED_EDGE('',*,*,#654,.T.);
#657=ORIENTED_EDGE('',*,*,#656,.F.);
#658=EDGE_LOOP('',(#651,#653,#655,#657));
#659=FACE_OUTER_BOUND('',#658,.F.);
#661=CARTESIAN_POINT('',(5.3E-1,0.E0,0.E0));
#662=DIRECTION('',(1.E0,0.E0,0.E0));
#663=DIRECTION('',(0.E0,-1.E0,0.E0));
#664=AXIS2_PLACEMENT_3D('',#661,#662,#663);
#665=PLANE('',#664);
#667=ORIENTED_EDGE('',*,*,#666,.F.);
#669=ORIENTED_EDGE('',*,*,#668,.F.);
#671=ORIENTED_EDGE('',*,*,#670,.T.);
#673=ORIENTED_EDGE('',*,*,#672,.F.);
#674=EDGE_LOOP('',(#667,#669,#671,#673));
#675=FACE_OUTER_BOUND('',#674,.F.);
#677=CARTESIAN_POINT('',(4.3E-1,-9.021443405011E0,-2.4E0));
#678=DIRECTION('',(0.E0,1.E0,0.E0));
#679=DIRECTION('',(1.E0,0.E0,0.E0));
#680=AXIS2_PLACEMENT_3D('',#677,#678,#679);
#681=CYLINDRICAL_SURFACE('',#680,1.E-1);
#682=ORIENTED_EDGE('',*,*,#537,.F.);
#684=ORIENTED_EDGE('',*,*,#683,.F.);
#686=ORIENTED_EDGE('',*,*,#685,.F.);
#687=ORIENTED_EDGE('',*,*,#672,.T.);
#688=ORIENTED_EDGE('',*,*,#622,.T.);
#689=EDGE_LOOP('',(#682,#684,#686,#687,#688));
#690=FACE_OUTER_BOUND('',#689,.F.);
#692=CARTESIAN_POINT('',(0.E0,-2.5E0,-2.5E0));
#693=DIRECTION('',(0.E0,0.E0,-1.E0));
#694=DIRECTION('',(0.E0,1.E0,0.E0));
#695=AXIS2_PLACEMENT_3D('',#692,#693,#694);
#696=PLANE('',#695);
#697=ORIENTED_EDGE('',*,*,#535,.T.);
#698=ORIENTED_EDGE('',*,*,#522,.T.);
#700=ORIENTED_EDGE('',*,*,#699,.F.);
#701=ORIENTED_EDGE('',*,*,#683,.T.);
#702=EDGE_LOOP('',(#697,#698,#700,#701));
#703=FACE_OUTER_BOUND('',#702,.F.);
#705=CARTESIAN_POINT('',(2.65E-1,-2.25E0,-2.25E0));
#706=DIRECTION('',(0.E0,-7.071067811865E-1,-7.071067811865E-1));
#707=DIRECTION('',(0.E0,-7.071067811865E-1,7.071067811865E-1));
#708=AXIS2_PLACEMENT_3D('',#705,#706,#707);
#709=PLANE('',#708);
#710=ORIENTED_EDGE('',*,*,#566,.T.);
#712=ORIENTED_EDGE('',*,*,#711,.T.);
#714=ORIENTED_EDGE('',*,*,#713,.F.);
#716=ORIENTED_EDGE('',*,*,#715,.F.);
#717=ORIENTED_EDGE('',*,*,#666,.T.);
#718=ORIENTED_EDGE('',*,*,#685,.T.);
#719=ORIENTED_EDGE('',*,*,#699,.T.);
#720=ORIENTED_EDGE('',*,*,#520,.F.);
#721=EDGE_LOOP('',(#710,#712,#714,#716,#717,#718,#719,#720));
#722=FACE_OUTER_BOUND('',#721,.F.);
#724=CARTESIAN_POINT('',(1.E-1,-2.4E0,-9.018E0));
#725=DIRECTION('',(0.E0,0.E0,1.E0));
#726=DIRECTION('',(-1.E0,0.E0,0.E0));
#727=AXIS2_PLACEMENT_3D('',#724,#725,#726);
#728=CYLINDRICAL_SURFACE('',#727,1.E-1);
#730=ORIENTED_EDGE('',*,*,#729,.T.);
#732=ORIENTED_EDGE('',*,*,#731,.F.);
#733=ORIENTED_EDGE('',*,*,#711,.F.);
#734=ORIENTED_EDGE('',*,*,#564,.T.);
#735=EDGE_LOOP('',(#730,#732,#733,#734));
#736=FACE_OUTER_BOUND('',#735,.F.);
#738=CARTESIAN_POINT('',(2.65E-1,-2.25E0,2.25E0));
#739=DIRECTION('',(0.E0,-7.071067811865E-1,7.071067811865E-1));
#740=DIRECTION('',(0.E0,7.071067811865E-1,7.071067811865E-1));
#741=AXIS2_PLACEMENT_3D('',#738,#739,#740);
#742=PLANE('',#741);
#743=ORIENTED_EDGE('',*,*,#562,.T.);
#745=ORIENTED_EDGE('',*,*,#744,.T.);
#747=ORIENTED_EDGE('',*,*,#746,.F.);
#749=ORIENTED_EDGE('',*,*,#748,.F.);
#750=ORIENTED_EDGE('',*,*,#650,.T.);
#752=ORIENTED_EDGE('',*,*,#751,.T.);
#754=ORIENTED_EDGE('',*,*,#753,.T.);
#755=ORIENTED_EDGE('',*,*,#729,.F.);
#756=EDGE_LOOP('',(#743,#745,#747,#749,#750,#752,#754,#755));
#757=FACE_OUTER_BOUND('',#756,.F.);
#759=CARTESIAN_POINT('',(1.E-1,-9.021443405011E0,2.4E0));
#760=DIRECTION('',(0.E0,1.E0,0.E0));
#761=DIRECTION('',(-1.E0,0.E0,0.E0));
#762=AXIS2_PLACEMENT_3D('',#759,#760,#761);
#763=CYLINDRICAL_SURFACE('',#762,1.E-1);
#765=ORIENTED_EDGE('',*,*,#764,.T.);
#767=ORIENTED_EDGE('',*,*,#766,.F.);
#768=ORIENTED_EDGE('',*,*,#744,.F.);
#769=ORIENTED_EDGE('',*,*,#560,.T.);
#770=EDGE_LOOP('',(#765,#767,#768,#769));
#771=FACE_OUTER_BOUND('',#770,.F.);
#773=CARTESIAN_POINT('',(2.65E-1,2.25E0,2.25E0));
#774=DIRECTION('',(0.E0,7.071067811865E-1,7.071067811865E-1));
#775=DIRECTION('',(0.E0,7.071067811865E-1,-7.071067811865E-1));
#776=AXIS2_PLACEMENT_3D('',#773,#774,#775);
#777=PLANE('',#776);
#778=ORIENTED_EDGE('',*,*,#558,.T.);
#779=ORIENTED_EDGE('',*,*,#580,.T.);
#780=ORIENTED_EDGE('',*,*,#594,.F.);
#781=ORIENTED_EDGE('',*,*,#610,.F.);
#782=ORIENTED_EDGE('',*,*,#635,.T.);
#784=ORIENTED_EDGE('',*,*,#783,.T.);
#786=ORIENTED_EDGE('',*,*,#785,.T.);
#787=ORIENTED_EDGE('',*,*,#764,.F.);
#788=EDGE_LOOP('',(#778,#779,#780,#781,#782,#784,#786,#787));
#789=FACE_OUTER_BOUND('',#788,.F.);
#791=CARTESIAN_POINT('',(4.3E-1,9.021443405011E0,2.4E0));
#792=DIRECTION('',(0.E0,-1.E0,0.E0));
#793=DIRECTION('',(1.E0,0.E0,0.E0));
#794=AXIS2_PLACEMENT_3D('',#791,#792,#793);
#795=CYLINDRICAL_SURFACE('',#794,1.E-1);
#796=ORIENTED_EDGE('',*,*,#783,.F.);
#797=ORIENTED_EDGE('',*,*,#640,.T.);
#798=ORIENTED_EDGE('',*,*,#652,.T.);
#799=ORIENTED_EDGE('',*,*,#748,.T.);
#801=ORIENTED_EDGE('',*,*,#800,.F.);
#802=EDGE_LOOP('',(#796,#797,#798,#799,#801));
#803=FACE_OUTER_BOUND('',#802,.F.);
#805=CARTESIAN_POINT('',(0.E0,2.5E0,2.5E0));
#806=DIRECTION('',(0.E0,0.E0,1.E0));
#807=DIRECTION('',(0.E0,-1.E0,0.E0));
#808=AXIS2_PLACEMENT_3D('',#805,#806,#807);
#809=PLANE('',#808);
#810=ORIENTED_EDGE('',*,*,#785,.F.);
#811=ORIENTED_EDGE('',*,*,#800,.T.);
#812=ORIENTED_EDGE('',*,*,#746,.T.);
#813=ORIENTED_EDGE('',*,*,#766,.T.);
#814=EDGE_LOOP('',(#810,#811,#812,#813));
#815=FACE_OUTER_BOUND('',#814,.F.);
#817=CARTESIAN_POINT('',(4.3E-1,-2.4E0,9.018E0));
#818=DIRECTION('',(0.E0,0.E0,-1.E0));
#819=DIRECTION('',(1.E0,0.E0,0.E0));
#820=AXIS2_PLACEMENT_3D('',#817,#818,#819);
#821=CYLINDRICAL_SURFACE('',#820,1.E-1);
#822=ORIENTED_EDGE('',*,*,#751,.F.);
#823=ORIENTED_EDGE('',*,*,#656,.T.);
#824=ORIENTED_EDGE('',*,*,#668,.T.);
#825=ORIENTED_EDGE('',*,*,#715,.T.);
#827=ORIENTED_EDGE('',*,*,#826,.F.);
#828=EDGE_LOOP('',(#822,#823,#824,#825,#827));
#829=FACE_OUTER_BOUND('',#828,.F.);
#831=CARTESIAN_POINT('',(0.E0,-2.5E0,2.5E0));
#832=DIRECTION('',(0.E0,-1.E0,0.E0));
#833=DIRECTION('',(0.E0,0.E0,-1.E0));
#834=AXIS2_PLACEMENT_3D('',#831,#832,#833);
#835=PLANE('',#834);
#836=ORIENTED_EDGE('',*,*,#753,.F.);
#837=ORIENTED_EDGE('',*,*,#826,.T.);
#838=ORIENTED_EDGE('',*,*,#713,.T.);
#839=ORIENTED_EDGE('',*,*,#731,.T.);
#840=EDGE_LOOP('',(#836,#837,#838,#839));
#841=FACE_OUTER_BOUND('',#840,.F.);
#843=CARTESIAN_POINT('',(0.E0,0.E0,0.E0));
#844=DIRECTION('',(1.E0,0.E0,0.E0));
#845=DIRECTION('',(0.E0,-1.E0,0.E0));
#846=AXIS2_PLACEMENT_3D('',#843,#844,#845);
#847=CYLINDRICAL_SURFACE('',#846,2.4E0);
#849=ORIENTED_EDGE('',*,*,#848,.T.);
#851=ORIENTED_EDGE('',*,*,#850,.F.);
#852=ORIENTED_EDGE('',*,*,#624,.F.);
#853=ORIENTED_EDGE('',*,*,#670,.F.);
#855=ORIENTED_EDGE('',*,*,#854,.T.);
#856=EDGE_LOOP('',(#849,#851,#852,#853,#855));
#857=FACE_OUTER_BOUND('',#856,.F.);
#859=CARTESIAN_POINT('',(0.E0,0.E0,0.E0));
#860=DIRECTION('',(1.E0,0.E0,0.E0));
#861=DIRECTION('',(0.E0,-1.E0,0.E0));
#862=AXIS2_PLACEMENT_3D('',#859,#860,#861);
#863=CYLINDRICAL_SURFACE('',#862,2.4E0);
#865=ORIENTED_EDGE('',*,*,#864,.T.);
#867=ORIENTED_EDGE('',*,*,#866,.F.);
#869=ORIENTED_EDGE('',*,*,#868,.T.);
#871=ORIENTED_EDGE('',*,*,#870,.T.);
#872=EDGE_LOOP('',(#865,#867,#869,#871));
#873=FACE_OUTER_BOUND('',#872,.F.);
#875=CARTESIAN_POINT('',(3.E0,0.E0,0.E0));
#876=DIRECTION('',(1.E0,0.E0,0.E0));
#877=DIRECTION('',(0.E0,0.E0,1.E0));
#878=AXIS2_PLACEMENT_3D('',#875,#876,#877);
#879=PLANE('',#878);
#881=ORIENTED_EDGE('',*,*,#880,.F.);
#883=ORIENTED_EDGE('',*,*,#882,.T.);
#884=EDGE_LOOP('',(#881,#883));
#885=FACE_OUTER_BOUND('',#884,.F.);
#886=ORIENTED_EDGE('',*,*,#848,.F.);
#888=ORIENTED_EDGE('',*,*,#887,.F.);
#889=EDGE_LOOP('',(#886,#888));
#890=FACE_BOUND('',#889,.F.);
#892=CARTESIAN_POINT('',(0.E0,0.E0,0.E0));
#893=DIRECTION('',(1.E0,0.E0,0.E0));
#894=DIRECTION('',(0.E0,0.E0,1.E0));
#895=AXIS2_PLACEMENT_3D('',#892,#893,#894);
#896=CYLINDRICAL_SURFACE('',#895,2.5E0);
#898=ORIENTED_EDGE('',*,*,#897,.T.);
#899=ORIENTED_EDGE('',*,*,#880,.T.);
#901=ORIENTED_EDGE('',*,*,#900,.F.);
#903=ORIENTED_EDGE('',*,*,#902,.F.);
#904=EDGE_LOOP('',(#898,#899,#901,#903));
#905=FACE_OUTER_BOUND('',#904,.F.);
#907=CARTESIAN_POINT('',(0.E0,0.E0,0.E0));
#908=DIRECTION('',(1.E0,0.E0,0.E0));
#909=DIRECTION('',(0.E0,0.E0,1.E0));
#910=AXIS2_PLACEMENT_3D('',#907,#908,#909);
#911=CYLINDRICAL_SURFACE('',#910,2.5E0);
#912=ORIENTED_EDGE('',*,*,#897,.F.);
#914=ORIENTED_EDGE('',*,*,#913,.T.);
#915=ORIENTED_EDGE('',*,*,#900,.T.);
#916=ORIENTED_EDGE('',*,*,#882,.F.);
#917=EDGE_LOOP('',(#912,#914,#915,#916));
#918=FACE_OUTER_BOUND('',#917,.F.);
#920=CARTESIAN_POINT('',(4.3E0,0.E0,0.E0));
#921=DIRECTION('',(1.E0,0.E0,0.E0));
#922=DIRECTION('',(0.E0,0.E0,1.E0));
#923=AXIS2_PLACEMENT_3D('',#920,#921,#922);
#924=PLANE('',#923);
#925=ORIENTED_EDGE('',*,*,#913,.F.);
#926=ORIENTED_EDGE('',*,*,#902,.T.);
#927=EDGE_LOOP('',(#925,#926));
#928=FACE_OUTER_BOUND('',#927,.F.);
#929=ORIENTED_EDGE('',*,*,#868,.F.);
#931=ORIENTED_EDGE('',*,*,#930,.F.);
#932=EDGE_LOOP('',(#929,#931));
#933=FACE_BOUND('',#932,.F.);
#935=CARTESIAN_POINT('',(0.E0,0.E0,0.E0));
#936=DIRECTION('',(1.E0,0.E0,0.E0));
#937=DIRECTION('',(0.E0,-1.E0,0.E0));
#938=AXIS2_PLACEMENT_3D('',#935,#936,#937);
#939=CYLINDRICAL_SURFACE('',#938,2.4E0);
#940=ORIENTED_EDGE('',*,*,#887,.T.);
#941=ORIENTED_EDGE('',*,*,#854,.F.);
#942=ORIENTED_EDGE('',*,*,#654,.F.);
#943=ORIENTED_EDGE('',*,*,#638,.F.);
#944=ORIENTED_EDGE('',*,*,#850,.T.);
#945=EDGE_LOOP('',(#940,#941,#942,#943,#944));
#946=FACE_OUTER_BOUND('',#945,.F.);
#948=CARTESIAN_POINT('',(0.E0,0.E0,0.E0));
#949=DIRECTION('',(1.E0,0.E0,0.E0));
#950=DIRECTION('',(0.E0,-1.E0,0.E0));
#951=AXIS2_PLACEMENT_3D('',#948,#949,#950);
#952=CYLINDRICAL_SURFACE('',#951,2.4E0);
#954=ORIENTED_EDGE('',*,*,#953,.T.);
#955=ORIENTED_EDGE('',*,*,#870,.F.);
#956=ORIENTED_EDGE('',*,*,#930,.T.);
#957=ORIENTED_EDGE('',*,*,#866,.T.);
#958=EDGE_LOOP('',(#954,#955,#956,#957));
#959=FACE_OUTER_BOUND('',#958,.F.);
#961=CARTESIAN_POINT('',(6.96E0,-3.001145510649E0,-2.4E0));
#962=DIRECTION('',(-1.E0,0.E0,0.E0));
#963=DIRECTION('',(0.E0,0.E0,1.E0));
#964=AXIS2_PLACEMENT_3D('',#961,#962,#963);
#965=PLANE('',#964);
#966=ORIENTED_EDGE('',*,*,#864,.F.);
#967=ORIENTED_EDGE('',*,*,#953,.F.);
#968=EDGE_LOOP('',(#966,#967));
#969=FACE_OUTER_BOUND('',#968,.F.);
#971=ORIENTED_EDGE('',*,*,#970,.T.);
#973=ORIENTED_EDGE('',*,*,#972,.T.);
#974=EDGE_LOOP('',(#971,#973));
#975=FACE_BOUND('',#974,.F.);
#977=CARTESIAN_POINT('',(7.5E0,0.E0,0.E0));
#978=DIRECTION('',(1.E0,0.E0,0.E0));
#979=DIRECTION('',(0.E0,-1.E0,0.E0));
#980=AXIS2_PLACEMENT_3D('',#977,#978,#979);
#981=CYLINDRICAL_SURFACE('',#980,1.025308930455E0);
#982=ORIENTED_EDGE('',*,*,#970,.F.);
#984=ORIENTED_EDGE('',*,*,#983,.T.);
#986=ORIENTED_EDGE('',*,*,#985,.F.);
#988=ORIENTED_EDGE('',*,*,#987,.F.);
#989=EDGE_LOOP('',(#982,#984,#986,#988));
#990=FACE_OUTER_BOUND('',#989,.F.);
#992=CARTESIAN_POINT('',(7.5E0,0.E0,0.E0));
#993=DIRECTION('',(1.E0,0.E0,0.E0));
#994=DIRECTION('',(0.E0,-1.E0,0.E0));
#995=AXIS2_PLACEMENT_3D('',#992,#993,#994);
#996=CYLINDRICAL_SURFACE('',#995,1.025308930455E0);
#997=ORIENTED_EDGE('',*,*,#972,.F.);
#998=ORIENTED_EDGE('',*,*,#987,.T.);
#1000=ORIENTED_EDGE('',*,*,#999,.F.);
#1001=ORIENTED_EDGE('',*,*,#983,.F.);
#1002=EDGE_LOOP('',(#997,#998,#1000,#1001));
#1003=FACE_OUTER_BOUND('',#1002,.F.);
#1005=CARTESIAN_POINT('',(6.75E0,0.E0,0.E0));
#1006=DIRECTION('',(1.E0,0.E0,0.E0));
#1007=DIRECTION('',(0.E0,-1.E0,0.E0));
#1008=AXIS2_PLACEMENT_3D('',#1005,#1006,#1007);
#1009=PLANE('',#1008);
#1010=ORIENTED_EDGE('',*,*,#985,.T.);
#1011=ORIENTED_EDGE('',*,*,#999,.T.);
#1012=EDGE_LOOP('',(#1010,#1011));
#1013=FACE_OUTER_BOUND('',#1012,.F.);
#1015=CLOSED_SHELL('',(#526,#549,#571,#585,#599,#615,#629,#644,#660,#676,#691,
#704,#723,#737,#758,#772,#790,#804,#816,#830,#842,#858,#874,#891,#906,#919,#934,
#947,#960,#976,#991,#1004,#1014));
#1016=MANIFOLD_SOLID_BREP('',#1015);
#1017=DIRECTION('',(1.E0,0.E0,0.E0));
#1018=VECTOR('',#1017,5.3E-1);
#1019=CARTESIAN_POINT('',(6.97E0,1.025308930455E0,0.E0));
#1020=LINE('',#1019,#1018);
#1021=CARTESIAN_POINT('',(6.97E0,0.E0,0.E0));
#1022=DIRECTION('',(1.E0,0.E0,0.E0));
#1023=DIRECTION('',(0.E0,1.E0,0.E0));
#1024=AXIS2_PLACEMENT_3D('',#1021,#1022,#1023);
#1026=CARTESIAN_POINT('',(6.97E0,0.E0,0.E0));
#1027=DIRECTION('',(1.E0,0.E0,0.E0));
#1028=DIRECTION('',(0.E0,-1.E0,0.E0));
#1029=AXIS2_PLACEMENT_3D('',#1026,#1027,#1028);
#1031=CARTESIAN_POINT('',(6.97E0,0.E0,0.E0));
#1032=DIRECTION('',(1.E0,0.E0,0.E0));
#1033=DIRECTION('',(0.E0,-1.E0,0.E0));
#1034=AXIS2_PLACEMENT_3D('',#1031,#1032,#1033);
#1036=CARTESIAN_POINT('',(6.97E0,0.E0,0.E0));
#1037=DIRECTION('',(1.E0,0.E0,0.E0));
#1038=DIRECTION('',(0.E0,1.E0,0.E0));
#1039=AXIS2_PLACEMENT_3D('',#1036,#1037,#1038);
#1041=CARTESIAN_POINT('',(7.07E0,2.3E0,-4.946416540252E-13));
#1042=DIRECTION('',(0.E0,2.150619092534E-13,1.E0));
#1043=DIRECTION('',(0.E0,1.E0,-2.150619092534E-13));
#1044=AXIS2_PLACEMENT_3D('',#1041,#1042,#1043);
#1046=CARTESIAN_POINT('',(7.07E0,0.E0,0.E0));
#1047=DIRECTION('',(1.E0,0.E0,0.E0));
#1048=DIRECTION('',(0.E0,1.E0,0.E0));
#1049=AXIS2_PLACEMENT_3D('',#1046,#1047,#1048);
#1051=DIRECTION('',(1.E0,0.E0,-4.565062816400E-13));
#1052=VECTOR('',#1051,3.3E-1);
#1053=CARTESIAN_POINT('',(7.07E0,2.4E0,-1.580630643354E-14));
#1054=LINE('',#1053,#1052);
#1055=CARTESIAN_POINT('',(7.4E0,0.E0,0.E0));
#1056=DIRECTION('',(1.E0,0.E0,0.E0));
#1057=DIRECTION('',(0.E0,1.E0,0.E0));
#1058=AXIS2_PLACEMENT_3D('',#1055,#1056,#1057);
#1060=CARTESIAN_POINT('',(7.07E0,0.E0,0.E0));
#1061=DIRECTION('',(1.E0,0.E0,0.E0));
#1062=DIRECTION('',(0.E0,-1.E0,0.E0));
#1063=AXIS2_PLACEMENT_3D('',#1060,#1061,#1062);
#1065=DIRECTION('',(1.E0,0.E0,4.570637026351E-13));
#1066=VECTOR('',#1065,3.3E-1);
#1067=CARTESIAN_POINT('',(7.07E0,-2.4E0,1.527132748559E-14));
#1068=LINE('',#1067,#1066);
#1069=CARTESIAN_POINT('',(7.4E0,0.E0,0.E0));
#1070=DIRECTION('',(1.E0,0.E0,0.E0));
#1071=DIRECTION('',(0.E0,-1.E0,0.E0));
#1072=AXIS2_PLACEMENT_3D('',#1069,#1070,#1071);
#1074=CARTESIAN_POINT('',(7.07E0,-2.3E0,4.945809387036E-13));
#1075=DIRECTION('',(0.E0,-2.150354547203E-13,-1.E0));
#1076=DIRECTION('',(0.E0,-1.E0,2.150354547203E-13));
#1077=AXIS2_PLACEMENT_3D('',#1074,#1075,#1076);
#1079=CARTESIAN_POINT('',(7.4E0,-2.3E0,0.E0));
#1080=DIRECTION('',(0.E0,0.E0,-1.E0));
#1081=DIRECTION('',(1.E0,0.E0,0.E0));
#1082=AXIS2_PLACEMENT_3D('',#1079,#1080,#1081);
#1084=CARTESIAN_POINT('',(7.5E0,0.E0,0.E0));
#1085=DIRECTION('',(1.E0,0.E0,0.E0));
#1086=DIRECTION('',(0.E0,1.E0,0.E0));
#1087=AXIS2_PLACEMENT_3D('',#1084,#1085,#1086);
#1089=CARTESIAN_POINT('',(7.5E0,0.E0,0.E0));
#1090=DIRECTION('',(1.E0,0.E0,0.E0));
#1091=DIRECTION('',(0.E0,-1.E0,0.E0));
#1092=AXIS2_PLACEMENT_3D('',#1089,#1090,#1091);
#1094=CARTESIAN_POINT('',(7.5E0,0.E0,0.E0));
#1095=DIRECTION('',(1.E0,0.E0,0.E0));
#1096=DIRECTION('',(0.E0,-1.E0,0.E0));
#1097=AXIS2_PLACEMENT_3D('',#1094,#1095,#1096);
#1099=CARTESIAN_POINT('',(7.5E0,0.E0,0.E0));
#1100=DIRECTION('',(1.E0,0.E0,0.E0));
#1101=DIRECTION('',(0.E0,1.E0,0.E0));
#1102=AXIS2_PLACEMENT_3D('',#1099,#1100,#1101);
#1104=CARTESIAN_POINT('',(7.4E0,2.3E0,0.E0));
#1105=DIRECTION('',(0.E0,0.E0,1.E0));
#1106=DIRECTION('',(1.E0,0.E0,0.E0));
#1107=AXIS2_PLACEMENT_3D('',#1104,#1105,#1106);
#1109=DIRECTION('',(1.E0,0.E0,0.E0));
#1110=VECTOR('',#1109,5.3E-1);
#1111=CARTESIAN_POINT('',(6.97E0,-1.025308930455E0,0.E0));
#1112=LINE('',#1111,#1110);
#1113=CARTESIAN_POINT('',(7.07E0,2.4E0,0.E0));
#1114=CARTESIAN_POINT('',(7.07E0,-2.4E0,0.E0));
#1115=VERTEX_POINT('',#1113);
#1116=VERTEX_POINT('',#1114);
#1117=CARTESIAN_POINT('',(6.97E0,2.3E0,0.E0));
#1118=CARTESIAN_POINT('',(6.97E0,-2.3E0,0.E0));
#1119=VERTEX_POINT('',#1117);
#1120=VERTEX_POINT('',#1118);
#1121=CARTESIAN_POINT('',(7.5E0,2.3E0,0.E0));
#1122=CARTESIAN_POINT('',(7.5E0,-2.3E0,0.E0));
#1123=VERTEX_POINT('',#1121);
#1124=VERTEX_POINT('',#1122);
#1125=CARTESIAN_POINT('',(7.4E0,2.4E0,0.E0));
#1126=CARTESIAN_POINT('',(7.4E0,-2.4E0,0.E0));
#1127=VERTEX_POINT('',#1125);
#1128=VERTEX_POINT('',#1126);
#1129=CARTESIAN_POINT('',(6.97E0,-1.025308930455E0,0.E0));
#1130=CARTESIAN_POINT('',(6.97E0,1.025308930455E0,0.E0));
#1131=VERTEX_POINT('',#1129);
#1132=VERTEX_POINT('',#1130);
#1133=CARTESIAN_POINT('',(7.5E0,-1.025308930455E0,0.E0));
#1134=VERTEX_POINT('',#1133);
#1135=CARTESIAN_POINT('',(7.5E0,1.025308930455E0,0.E0));
#1136=VERTEX_POINT('',#1135);
#1137=CARTESIAN_POINT('',(7.5E0,0.E0,0.E0));
#1138=DIRECTION('',(1.E0,0.E0,0.E0));
#1139=DIRECTION('',(0.E0,-1.E0,0.E0));
#1140=AXIS2_PLACEMENT_3D('',#1137,#1138,#1139);
#1141=CYLINDRICAL_SURFACE('',#1140,1.025308930455E0);
#1143=ORIENTED_EDGE('',*,*,#1142,.T.);
#1145=ORIENTED_EDGE('',*,*,#1144,.T.);
#1147=ORIENTED_EDGE('',*,*,#1146,.F.);
#1149=ORIENTED_EDGE('',*,*,#1148,.F.);
#1150=EDGE_LOOP('',(#1143,#1145,#1147,#1149));
#1151=FACE_OUTER_BOUND('',#1150,.F.);
#1153=CARTESIAN_POINT('',(6.97E0,-3.001145510649E0,2.4E0));
#1154=DIRECTION('',(1.E0,0.E0,0.E0));
#1155=DIRECTION('',(0.E0,0.E0,-1.E0));
#1156=AXIS2_PLACEMENT_3D('',#1153,#1154,#1155);
#1157=PLANE('',#1156);
#1159=ORIENTED_EDGE('',*,*,#1158,.T.);
#1161=ORIENTED_EDGE('',*,*,#1160,.T.);
#1162=EDGE_LOOP('',(#1159,#1161));
#1163=FACE_OUTER_BOUND('',#1162,.F.);
#1165=ORIENTED_EDGE('',*,*,#1164,.F.);
#1166=ORIENTED_EDGE('',*,*,#1142,.F.);
#1167=EDGE_LOOP('',(#1165,#1166));
#1168=FACE_BOUND('',#1167,.F.);
#1170=CARTESIAN_POINT('',(7.07E0,0.E0,0.E0));
#1171=DIRECTION('',(1.E0,0.E0,0.E0));
#1172=DIRECTION('',(0.E0,9.999948434034E-1,-3.211411942202E-3));
#1173=AXIS2_PLACEMENT_3D('',#1170,#1171,#1172);
#1174=TOROIDAL_SURFACE('',#1173,2.3E0,1.E-1);
#1176=ORIENTED_EDGE('',*,*,#1175,.T.);
#1178=ORIENTED_EDGE('',*,*,#1177,.T.);
#1179=ORIENTED_EDGE('',*,*,#1158,.F.);
#1181=ORIENTED_EDGE('',*,*,#1180,.F.);
#1182=EDGE_LOOP('',(#1176,#1178,#1179,#1181));
#1183=FACE_OUTER_BOUND('',#1182,.F.);
#1185=CARTESIAN_POINT('',(0.E0,0.E0,0.E0));
#1186=DIRECTION('',(1.E0,0.E0,0.E0));
#1187=DIRECTION('',(0.E0,-1.E0,0.E0));
#1188=AXIS2_PLACEMENT_3D('',#1185,#1186,#1187);
#1189=CYLINDRICAL_SURFACE('',#1188,2.4E0);
#1190=ORIENTED_EDGE('',*,*,#1175,.F.);
#1192=ORIENTED_EDGE('',*,*,#1191,.T.);
#1194=ORIENTED_EDGE('',*,*,#1193,.T.);
#1196=ORIENTED_EDGE('',*,*,#1195,.F.);
#1197=EDGE_LOOP('',(#1190,#1192,#1194,#1196));
#1198=FACE_OUTER_BOUND('',#1197,.F.);
#1200=CARTESIAN_POINT('',(0.E0,0.E0,0.E0));
#1201=DIRECTION('',(1.E0,0.E0,0.E0));
#1202=DIRECTION('',(0.E0,-1.E0,0.E0));
#1203=AXIS2_PLACEMENT_3D('',#1200,#1201,#1202);
#1204=CYLINDRICAL_SURFACE('',#1203,2.4E0);
#1206=ORIENTED_EDGE('',*,*,#1205,.F.);
#1207=ORIENTED_EDGE('',*,*,#1195,.T.);
#1209=ORIENTED_EDGE('',*,*,#1208,.T.);
#1210=ORIENTED_EDGE('',*,*,#1191,.F.);
#1211=EDGE_LOOP('',(#1206,#1207,#1209,#1210));
#1212=FACE_OUTER_BOUND('',#1211,.F.);
#1214=CARTESIAN_POINT('',(7.07E0,0.E0,0.E0));
#1215=DIRECTION('',(1.E0,0.E0,0.E0));
#1216=DIRECTION('',(0.E0,-9.999948434034E-1,3.211411942202E-3));
#1217=AXIS2_PLACEMENT_3D('',#1214,#1215,#1216);
#1218=TOROIDAL_SURFACE('',#1217,2.3E0,1.E-1);
#1219=ORIENTED_EDGE('',*,*,#1205,.T.);
#1220=ORIENTED_EDGE('',*,*,#1180,.T.);
#1221=ORIENTED_EDGE('',*,*,#1160,.F.);
#1222=ORIENTED_EDGE('',*,*,#1177,.F.);
#1223=EDGE_LOOP('',(#1219,#1220,#1221,#1222));
#1224=FACE_OUTER_BOUND('',#1223,.F.);
#1226=CARTESIAN_POINT('',(7.4E0,0.E0,0.E0));
#1227=DIRECTION('',(1.E0,0.E0,0.E0));
#1228=DIRECTION('',(0.E0,-9.999953069923E-1,3.063656863196E-3));
#1229=AXIS2_PLACEMENT_3D('',#1226,#1227,#1228);
#1230=TOROIDAL_SURFACE('',#1229,2.3E0,1.E-1);
#1232=ORIENTED_EDGE('',*,*,#1231,.T.);
#1234=ORIENTED_EDGE('',*,*,#1233,.T.);
#1235=ORIENTED_EDGE('',*,*,#1208,.F.);
#1237=ORIENTED_EDGE('',*,*,#1236,.F.);
#1238=EDGE_LOOP('',(#1232,#1234,#1235,#1237));
#1239=FACE_OUTER_BOUND('',#1238,.F.);
#1241=CARTESIAN_POINT('',(7.5E0,0.E0,0.E0));
#1242=DIRECTION('',(1.E0,0.E0,0.E0));
#1243=DIRECTION('',(0.E0,-1.E0,0.E0));
#1244=AXIS2_PLACEMENT_3D('',#1241,#1242,#1243);
#1245=PLANE('',#1244);
#1247=ORIENTED_EDGE('',*,*,#1246,.F.);
#1248=ORIENTED_EDGE('',*,*,#1231,.F.);
#1249=EDGE_LOOP('',(#1247,#1248));
#1250=FACE_OUTER_BOUND('',#1249,.F.);
#1252=ORIENTED_EDGE('',*,*,#1251,.T.);
#1253=ORIENTED_EDGE('',*,*,#1146,.T.);
#1254=EDGE_LOOP('',(#1252,#1253));
#1255=FACE_BOUND('',#1254,.F.);
#1257=CARTESIAN_POINT('',(7.4E0,0.E0,0.E0));
#1258=DIRECTION('',(1.E0,0.E0,0.E0));
#1259=DIRECTION('',(0.E0,9.999953069923E-1,-3.063656863196E-3));
#1260=AXIS2_PLACEMENT_3D('',#1257,#1258,#1259);
#1261=TOROIDAL_SURFACE('',#1260,2.3E0,1.E-1);
#1262=ORIENTED_EDGE('',*,*,#1246,.T.);
#1263=ORIENTED_EDGE('',*,*,#1236,.T.);
#1264=ORIENTED_EDGE('',*,*,#1193,.F.);
#1265=ORIENTED_EDGE('',*,*,#1233,.F.);
#1266=EDGE_LOOP('',(#1262,#1263,#1264,#1265));
#1267=FACE_OUTER_BOUND('',#1266,.F.);
#1269=CARTESIAN_POINT('',(7.5E0,0.E0,0.E0));
#1270=DIRECTION('',(1.E0,0.E0,0.E0));
#1271=DIRECTION('',(0.E0,-1.E0,0.E0));
#1272=AXIS2_PLACEMENT_3D('',#1269,#1270,#1271);
#1273=CYLINDRICAL_SURFACE('',#1272,1.025308930455E0);
#1274=ORIENTED_EDGE('',*,*,#1164,.T.);
#1275=ORIENTED_EDGE('',*,*,#1148,.T.);
#1276=ORIENTED_EDGE('',*,*,#1251,.F.);
#1277=ORIENTED_EDGE('',*,*,#1144,.F.);
#1278=EDGE_LOOP('',(#1274,#1275,#1276,#1277));
#1279=FACE_OUTER_BOUND('',#1278,.F.);
#1281=CLOSED_SHELL('',(#1152,#1169,#1184,#1199,#1213,#1225,#1240,#1256,#1268,
#1280));
#1282=MANIFOLD_SOLID_BREP('',#1281);
#1284=DIMENSIONAL_EXPONENTS(0.E0,0.E0,0.E0,0.E0,0.E0,0.E0,0.E0);
#1286=PLANE_ANGLE_MEASURE_WITH_UNIT(PLANE_ANGLE_MEASURE(1.745329251994E-2),
#1285);
#1287=(CONVERSION_BASED_UNIT('DEGREE',#1286)NAMED_UNIT(*)PLANE_ANGLE_UNIT());
#1289=UNCERTAINTY_MEASURE_WITH_UNIT(LENGTH_MEASURE(4.781741307621E-4),#1283,
'closure',
'Maximum model space distance between geometric entities at asserted connectivities');
#1292=APPLICATION_CONTEXT(
'CONFIGURATION CONTROLLED 3D DESIGNS OF MECHANICAL PARTS AND ASSEMBLIES');
#1293=APPLICATION_PROTOCOL_DEFINITION('international standard',
'config_control_design',1994,#1292);
#1294=DESIGN_CONTEXT('',#1292,'design');
#1295=MECHANICAL_CONTEXT('',#1292,'mechanical');
#1296=PRODUCT('2038-XX-SM','2038-XX-SM','NOT SPECIFIED',(#1295));
#1297=PRODUCT_DEFINITION_FORMATION_WITH_SPECIFIED_SOURCE('1','LAST_VERSION',
#1296,.MADE.);
#1301=PRODUCT_CATEGORY('part','');
#1302=PRODUCT_RELATED_PRODUCT_CATEGORY('detail','',(#1296));
#1303=PRODUCT_CATEGORY_RELATIONSHIP('','',#1301,#1302);
#1304=SECURITY_CLASSIFICATION_LEVEL('unclassified');
#1305=SECURITY_CLASSIFICATION('','',#1304);
#1306=CC_DESIGN_SECURITY_CLASSIFICATION(#1305,(#1297));
#1307=APPROVAL_STATUS('approved');
#1308=APPROVAL(#1307,'');
#1309=CC_DESIGN_APPROVAL(#1308,(#1305,#1297,#1298));
#1310=CALENDAR_DATE(112,30,7);
#1311=COORDINATED_UNIVERSAL_TIME_OFFSET(7,0,.BEHIND.);
#1312=LOCAL_TIME(12,14,5.1E1,#1311);
#1313=DATE_AND_TIME(#1310,#1312);
#1314=APPROVAL_DATE_TIME(#1313,#1308);
#1315=DATE_TIME_ROLE('creation_date');
#1316=CC_DESIGN_DATE_AND_TIME_ASSIGNMENT(#1313,#1315,(#1298));
#1317=DATE_TIME_ROLE('classification_date');
#1318=CC_DESIGN_DATE_AND_TIME_ASSIGNMENT(#1313,#1317,(#1305));
#1319=PERSON('UNSPECIFIED','UNSPECIFIED',$,$,$,$);
#1320=ORGANIZATION('UNSPECIFIED','UNSPECIFIED','UNSPECIFIED');
#1321=PERSON_AND_ORGANIZATION(#1319,#1320);
#1322=APPROVAL_ROLE('approver');
#1323=APPROVAL_PERSON_ORGANIZATION(#1321,#1308,#1322);
#1324=PERSON_AND_ORGANIZATION_ROLE('creator');
#1325=CC_DESIGN_PERSON_AND_ORGANIZATION_ASSIGNMENT(#1321,#1324,(#1297,#1298));
#1326=PERSON_AND_ORGANIZATION_ROLE('design_supplier');
#1327=CC_DESIGN_PERSON_AND_ORGANIZATION_ASSIGNMENT(#1321,#1326,(#1297));
#1328=PERSON_AND_ORGANIZATION_ROLE('classification_officer');
#1329=CC_DESIGN_PERSON_AND_ORGANIZATION_ASSIGNMENT(#1321,#1328,(#1305));
#1330=PERSON_AND_ORGANIZATION_ROLE('design_owner');
#1331=CC_DESIGN_PERSON_AND_ORGANIZATION_ASSIGNMENT(#1321,#1330,(#1296));
#9=B_SPLINE_CURVE_WITH_KNOTS('',3,(#1,#2,#3,#4,#5,#6,#7,#8),.UNSPECIFIED.,.F.,
.F.,(4,1,1,1,1,4),(0.E0,2.5E-1,5.E-1,7.5E-1,8.75E-1,1.E0),.UNSPECIFIED.);
#18=B_SPLINE_CURVE_WITH_KNOTS('',3,(#10,#11,#12,#13,#14,#15,#16,#17),
.UNSPECIFIED.,.F.,.F.,(4,1,1,1,1,4),(0.E0,2.5E-1,5.E-1,7.5E-1,8.75E-1,1.E0),
.UNSPECIFIED.);
#59=B_SPLINE_CURVE_WITH_KNOTS('',3,(#51,#52,#53,#54,#55,#56,#57,#58),
.UNSPECIFIED.,.F.,.F.,(4,1,1,1,1,4),(0.E0,1.25E-1,2.5E-1,5.E-1,7.5E-1,1.E0),
.UNSPECIFIED.);
#68=B_SPLINE_CURVE_WITH_KNOTS('',3,(#60,#61,#62,#63,#64,#65,#66,#67),
.UNSPECIFIED.,.F.,.F.,(4,1,1,1,1,4),(0.E0,2.5E-1,5.E-1,7.5E-1,8.75E-1,1.E0),
.UNSPECIFIED.);
#93=B_SPLINE_CURVE_WITH_KNOTS('',3,(#85,#86,#87,#88,#89,#90,#91,#92),
.UNSPECIFIED.,.F.,.F.,(4,1,1,1,1,4),(0.E0,2.5E-1,5.E-1,7.5E-1,8.75E-1,1.E0),
.UNSPECIFIED.);
#102=B_SPLINE_CURVE_WITH_KNOTS('',3,(#94,#95,#96,#97,#98,#99,#100,#101),
.UNSPECIFIED.,.F.,.F.,(4,1,1,1,1,4),(0.E0,2.5E-1,5.E-1,7.5E-1,8.75E-1,1.E0),
.UNSPECIFIED.);
#115=CIRCLE('',#114,2.4E0);
#132=CIRCLE('',#131,2.4E0);
#149=CIRCLE('',#148,2.4E0);
#166=CIRCLE('',#165,2.4E0);
#179=B_SPLINE_CURVE_WITH_KNOTS('',3,(#171,#172,#173,#174,#175,#176,#177,#178),
.UNSPECIFIED.,.F.,.F.,(4,1,1,1,1,4),(0.E0,1.25E-1,2.5E-1,5.E-1,7.5E-1,1.E0),
.UNSPECIFIED.);
#188=B_SPLINE_CURVE_WITH_KNOTS('',3,(#180,#181,#182,#183,#184,#185,#186,#187),
.UNSPECIFIED.,.F.,.F.,(4,1,1,1,1,4),(0.E0,2.5E-1,5.E-1,7.5E-1,8.75E-1,1.E0),
.UNSPECIFIED.);
#213=B_SPLINE_CURVE_WITH_KNOTS('',3,(#205,#206,#207,#208,#209,#210,#211,#212),
.UNSPECIFIED.,.F.,.F.,(4,1,1,1,1,4),(0.E0,2.5E-1,5.E-1,7.5E-1,8.75E-1,1.E0),
.UNSPECIFIED.);
#222=B_SPLINE_CURVE_WITH_KNOTS('',3,(#214,#215,#216,#217,#218,#219,#220,#221),
.UNSPECIFIED.,.F.,.F.,(4,1,1,1,1,4),(0.E0,2.5E-1,5.E-1,7.5E-1,8.75E-1,1.E0),
.UNSPECIFIED.);
#231=B_SPLINE_CURVE_WITH_KNOTS('',3,(#223,#224,#225,#226,#227,#228,#229,#230),
.UNSPECIFIED.,.F.,.F.,(4,1,1,1,1,4),(0.E0,2.5E-1,5.E-1,7.5E-1,8.75E-1,1.E0),
.UNSPECIFIED.);
#240=B_SPLINE_CURVE_WITH_KNOTS('',3,(#232,#233,#234,#235,#236,#237,#238,#239),
.UNSPECIFIED.,.F.,.F.,(4,1,1,1,1,4),(0.E0,2.5E-1,5.E-1,7.5E-1,8.75E-1,1.E0),
.UNSPECIFIED.);
#249=B_SPLINE_CURVE_WITH_KNOTS('',3,(#241,#242,#243,#244,#245,#246,#247,#248),
.UNSPECIFIED.,.F.,.F.,(4,1,1,1,1,4),(0.E0,2.5E-1,5.E-1,7.5E-1,8.75E-1,1.E0),
.UNSPECIFIED.);
#258=B_SPLINE_CURVE_WITH_KNOTS('',3,(#250,#251,#252,#253,#254,#255,#256,#257),
.UNSPECIFIED.,.F.,.F.,(4,1,1,1,1,4),(0.E0,2.5E-1,5.E-1,7.5E-1,8.75E-1,1.E0),
.UNSPECIFIED.);
#283=B_SPLINE_CURVE_WITH_KNOTS('',3,(#275,#276,#277,#278,#279,#280,#281,#282),
.UNSPECIFIED.,.F.,.F.,(4,1,1,1,1,4),(0.E0,2.5E-1,5.E-1,7.5E-1,8.75E-1,1.E0),
.UNSPECIFIED.);
#292=B_SPLINE_CURVE_WITH_KNOTS('',3,(#284,#285,#286,#287,#288,#289,#290,#291),
.UNSPECIFIED.,.F.,.F.,(4,1,1,1,1,4),(0.E0,2.5E-1,5.E-1,7.5E-1,8.75E-1,1.E0),
.UNSPECIFIED.);
#313=CIRCLE('',#312,2.4E0);
#322=CIRCLE('',#321,2.4E0);
#327=CIRCLE('',#326,2.4E0);
#336=CIRCLE('',#335,2.5E0);
#341=CIRCLE('',#340,2.5E0);
#354=CIRCLE('',#353,2.5E0);
#359=CIRCLE('',#358,2.5E0);
#364=CIRCLE('',#363,2.4E0);
#373=CIRCLE('',#372,2.4E0);
#378=CIRCLE('',#377,2.4E0);
#387=CIRCLE('',#386,1.025308930455E0);
#392=CIRCLE('',#391,1.025308930455E0);
#405=CIRCLE('',#404,1.025308930455E0);
#410=CIRCLE('',#409,1.025308930455E0);
#516=EDGE_CURVE('',#438,#442,#9,.T.);
#518=EDGE_CURVE('',#438,#485,#50,.T.);
#520=EDGE_CURVE('',#485,#498,#18,.T.);
#522=EDGE_CURVE('',#442,#498,#196,.T.);
#526=ADVANCED_FACE('',(#525),#515,.T.);
#532=EDGE_CURVE('',#437,#438,#22,.T.);
#535=EDGE_CURVE('',#441,#442,#192,.T.);
#537=EDGE_CURVE('',#441,#445,#179,.T.);
#539=EDGE_CURVE('',#445,#446,#106,.T.);
#541=EDGE_CURVE('',#446,#449,#93,.T.);
#543=EDGE_CURVE('',#449,#450,#72,.T.);
#545=EDGE_CURVE('',#450,#437,#59,.T.);
#549=ADVANCED_FACE('',(#548),#531,.T.);
#556=EDGE_CURVE('',#454,#437,#26,.T.);
#558=EDGE_CURVE('',#453,#454,#30,.T.);
#560=EDGE_CURVE('',#470,#453,#34,.T.);
#562=EDGE_CURVE('',#469,#470,#38,.T.);
#564=EDGE_CURVE('',#486,#469,#42,.T.);
#566=EDGE_CURVE('',#485,#486,#46,.T.);
#571=ADVANCED_FACE('',(#570),#554,.F.);
#578=EDGE_CURVE('',#458,#450,#84,.T.);
#580=EDGE_CURVE('',#454,#458,#68,.T.);
#585=ADVANCED_FACE('',(#584),#576,.T.);
#592=EDGE_CURVE('',#449,#457,#76,.T.);
#594=EDGE_CURVE('',#457,#458,#80,.T.);
#599=ADVANCED_FACE('',(#598),#590,.T.);
#606=EDGE_CURVE('',#446,#430,#119,.T.);
#608=EDGE_CURVE('',#430,#461,#127,.T.);
#610=EDGE_CURVE('',#461,#457,#102,.T.);
#615=ADVANCED_FACE('',(#614),#604,.T.);
#622=EDGE_CURVE('',#500,#445,#110,.T.);
#624=EDGE_CURVE('',#500,#430,#115,.T.);
#629=ADVANCED_FACE('',(#628),#620,.T.);
#635=EDGE_CURVE('',#461,#462,#123,.T.);
#638=EDGE_CURVE('',#430,#502,#132,.T.);
#640=EDGE_CURVE('',#462,#502,#136,.T.);
#644=ADVANCED_FACE('',(#643),#634,.T.);
#650=EDGE_CURVE('',#477,#478,#140,.T.);
#652=EDGE_CURVE('',#502,#477,#144,.T.);
#654=EDGE_CURVE('',#502,#428,#149,.T.);
#656=EDGE_CURVE('',#478,#428,#153,.T.);
#660=ADVANCED_FACE('',(#659),#649,.T.);
#666=EDGE_CURVE('',#493,#494,#157,.T.);
#668=EDGE_CURVE('',#428,#493,#161,.T.);
#670=EDGE_CURVE('',#428,#500,#166,.T.);
#672=EDGE_CURVE('',#494,#500,#170,.T.);
#676=ADVANCED_FACE('',(#675),#665,.T.);
#683=EDGE_CURVE('',#497,#441,#204,.T.);
#685=EDGE_CURVE('',#494,#497,#188,.T.);
#691=ADVANCED_FACE('',(#690),#681,.T.);
#699=EDGE_CURVE('',#497,#498,#200,.T.);
#704=ADVANCED_FACE('',(#703),#696,.T.);
#711=EDGE_CURVE('',#486,#490,#222,.T.);
#713=EDGE_CURVE('',#489,#490,#304,.T.);
#715=EDGE_CURVE('',#493,#489,#292,.T.);
#723=ADVANCED_FACE('',(#722),#709,.T.);
#729=EDGE_CURVE('',#469,#482,#213,.T.);
#731=EDGE_CURVE('',#490,#482,#308,.T.);
#737=ADVANCED_FACE('',(#736),#728,.T.);
#744=EDGE_CURVE('',#470,#474,#240,.T.);
#746=EDGE_CURVE('',#473,#474,#270,.T.);
#748=EDGE_CURVE('',#477,#473,#258,.T.);
#751=EDGE_CURVE('',#478,#481,#283,.T.);
#753=EDGE_CURVE('',#481,#482,#296,.T.);
#758=ADVANCED_FACE('',(#757),#742,.T.);
#764=EDGE_CURVE('',#453,#466,#231,.T.);
#766=EDGE_CURVE('',#474,#466,#274,.T.);
#772=ADVANCED_FACE('',(#771),#763,.T.);
#783=EDGE_CURVE('',#462,#465,#249,.T.);
#785=EDGE_CURVE('',#465,#466,#262,.T.);
#790=ADVANCED_FACE('',(#789),#777,.T.);
#800=EDGE_CURVE('',#465,#473,#266,.T.);
#804=ADVANCED_FACE('',(#803),#795,.T.);
#816=ADVANCED_FACE('',(#815),#809,.T.);
#826=EDGE_CURVE('',#481,#489,#300,.T.);
#830=ADVANCED_FACE('',(#829),#821,.T.);
#842=ADVANCED_FACE('',(#841),#835,.T.);
#848=EDGE_CURVE('',#421,#422,#313,.T.);
#850=EDGE_CURVE('',#430,#422,#368,.T.);
#854=EDGE_CURVE('',#428,#421,#317,.T.);
#858=ADVANCED_FACE('',(#857),#847,.T.);
#864=EDGE_CURVE('',#433,#434,#322,.T.);
#866=EDGE_CURVE('',#425,#434,#382,.T.);
#868=EDGE_CURVE('',#425,#426,#327,.T.);
#870=EDGE_CURVE('',#426,#433,#331,.T.);
#874=ADVANCED_FACE('',(#873),#863,.T.);
#880=EDGE_CURVE('',#414,#418,#336,.T.);
#882=EDGE_CURVE('',#414,#418,#341,.T.);
#887=EDGE_CURVE('',#422,#421,#364,.T.);
#891=ADVANCED_FACE('',(#885,#890),#879,.F.);
#897=EDGE_CURVE('',#413,#414,#345,.T.);
#900=EDGE_CURVE('',#417,#418,#349,.T.);
#902=EDGE_CURVE('',#413,#417,#354,.T.);
#906=ADVANCED_FACE('',(#905),#896,.T.);
#913=EDGE_CURVE('',#413,#417,#359,.T.);
#919=ADVANCED_FACE('',(#918),#911,.T.);
#930=EDGE_CURVE('',#426,#425,#378,.T.);
#934=ADVANCED_FACE('',(#928,#933),#924,.T.);
#947=ADVANCED_FACE('',(#946),#939,.T.);
#953=EDGE_CURVE('',#434,#433,#373,.T.);
#960=ADVANCED_FACE('',(#959),#952,.T.);
#970=EDGE_CURVE('',#509,#510,#387,.T.);
#972=EDGE_CURVE('',#510,#509,#392,.T.);
#976=ADVANCED_FACE('',(#969,#975),#965,.F.);
#983=EDGE_CURVE('',#509,#506,#396,.T.);
#985=EDGE_CURVE('',#505,#506,#405,.T.);
#987=EDGE_CURVE('',#510,#505,#400,.T.);
#991=ADVANCED_FACE('',(#990),#981,.F.);
#999=EDGE_CURVE('',#506,#505,#410,.T.);
#1004=ADVANCED_FACE('',(#1003),#996,.F.);
#1014=ADVANCED_FACE('',(#1013),#1009,.T.);
#1025=CIRCLE('',#1024,2.3E0);
#1030=CIRCLE('',#1029,2.3E0);
#1035=CIRCLE('',#1034,1.025308930455E0);
#1040=CIRCLE('',#1039,1.025308930455E0);
#1045=CIRCLE('',#1044,1.E-1);
#1050=CIRCLE('',#1049,2.4E0);
#1059=CIRCLE('',#1058,2.4E0);
#1064=CIRCLE('',#1063,2.4E0);
#1073=CIRCLE('',#1072,2.4E0);
#1078=CIRCLE('',#1077,1.E-1);
#1083=CIRCLE('',#1082,1.E-1);
#1088=CIRCLE('',#1087,2.3E0);
#1093=CIRCLE('',#1092,2.3E0);
#1098=CIRCLE('',#1097,1.025308930455E0);
#1103=CIRCLE('',#1102,1.025308930455E0);
#1108=CIRCLE('',#1107,1.E-1);
#1142=EDGE_CURVE('',#1132,#1131,#1040,.T.);
#1144=EDGE_CURVE('',#1131,#1134,#1112,.T.);
#1146=EDGE_CURVE('',#1136,#1134,#1103,.T.);
#1148=EDGE_CURVE('',#1132,#1136,#1020,.T.);
#1152=ADVANCED_FACE('',(#1151),#1141,.F.);
#1158=EDGE_CURVE('',#1119,#1120,#1025,.T.);
#1160=EDGE_CURVE('',#1120,#1119,#1030,.T.);
#1164=EDGE_CURVE('',#1131,#1132,#1035,.T.);
#1169=ADVANCED_FACE('',(#1163,#1168),#1157,.F.);
#1175=EDGE_CURVE('',#1115,#1116,#1050,.T.);
#1177=EDGE_CURVE('',#1116,#1120,#1078,.T.);
#1180=EDGE_CURVE('',#1115,#1119,#1045,.T.);
#1184=ADVANCED_FACE('',(#1183),#1174,.T.);
#1191=EDGE_CURVE('',#1115,#1127,#1054,.T.);
#1193=EDGE_CURVE('',#1127,#1128,#1059,.T.);
#1195=EDGE_CURVE('',#1116,#1128,#1068,.T.);
#1199=ADVANCED_FACE('',(#1198),#1189,.T.);
#1205=EDGE_CURVE('',#1116,#1115,#1064,.T.);
#1208=EDGE_CURVE('',#1128,#1127,#1073,.T.);
#1213=ADVANCED_FACE('',(#1212),#1204,.T.);
#1225=ADVANCED_FACE('',(#1224),#1218,.T.);
#1231=EDGE_CURVE('',#1124,#1123,#1093,.T.);
#1233=EDGE_CURVE('',#1123,#1127,#1108,.T.);
#1236=EDGE_CURVE('',#1124,#1128,#1083,.T.);
#1240=ADVANCED_FACE('',(#1239),#1230,.T.);
#1246=EDGE_CURVE('',#1123,#1124,#1088,.T.);
#1251=EDGE_CURVE('',#1134,#1136,#1098,.T.);
#1256=ADVANCED_FACE('',(#1250,#1255),#1245,.T.);
#1268=ADVANCED_FACE('',(#1267),#1261,.T.);
#1280=ADVANCED_FACE('',(#1279),#1273,.F.);
#1283=(LENGTH_UNIT()NAMED_UNIT(*)SI_UNIT(.MILLI.,.METRE.));
#1285=(NAMED_UNIT(*)PLANE_ANGLE_UNIT()SI_UNIT($,.RADIAN.));
#1288=(NAMED_UNIT(*)SI_UNIT($,.STERADIAN.)SOLID_ANGLE_UNIT());
#1290=(GEOMETRIC_REPRESENTATION_CONTEXT(3)GLOBAL_UNCERTAINTY_ASSIGNED_CONTEXT((
#1289))GLOBAL_UNIT_ASSIGNED_CONTEXT((#1283,#1287,#1288))REPRESENTATION_CONTEXT(
'ID1','3'));
#1291=ADVANCED_BREP_SHAPE_REPRESENTATION('',(#1016,#1282),#1290);
#1298=PRODUCT_DEFINITION('design','',#1297,#1294);
#1299=PRODUCT_DEFINITION_SHAPE('','SHAPE FOR 2038-XX-SM.',#1298);
#1300=SHAPE_DEFINITION_REPRESENTATION(#1299,#1291);
ENDSEC;
END-ISO-10303-21;
